<?xml version="1.0" encoding="UTF-8"?>
<svg version="1.1" xmlns="http://www.w3.org/2000/svg" width="501" height="498">
<path d="M0 0 C1.86787621 1.46181617 3.72118169 2.9423696 5.5625 4.4375 C6.66212623 5.2993512 7.76377921 6.15862122 8.8671875 7.015625 C11.85099563 9.33753055 14.81855851 11.67919374 17.78173828 14.02734375 C32.01502838 25.29845475 46.33946509 36.4565313 60.75 47.5 C61.43231689 48.02384277 62.11463379 48.54768555 62.81762695 49.08740234 C66.01528919 51.53218526 69.23201777 53.90532547 72.55078125 56.18359375 C73.54464844 56.92738281 74.53851563 57.67117188 75.5625 58.4375 C75.5625 59.0975 75.5625 59.7575 75.5625 60.4375 C76.09230469 60.66824219 76.62210938 60.89898437 77.16796875 61.13671875 C80.32576848 62.85213035 83.06213832 65.03250235 85.875 67.25 C89.48509676 70.0728719 93.08775993 72.8531743 96.875 75.4375 C97.761875 76.0975 98.64875 76.7575 99.5625 77.4375 C99.5625 78.0975 99.5625 78.7575 99.5625 79.4375 C100.2740625 79.6746875 100.985625 79.911875 101.71875 80.15625 C105.04398321 81.654432 107.30909857 83.54718447 110.0625 85.9375 C114.32618553 89.58818495 118.65529291 93.10456872 123.125 96.5 C140.86105715 110.06286723 155.92088527 123.0399495 159.09765625 146.3671875 C160.54589506 161.51981977 157.56076628 174.92695816 150.5625 188.4375 C149.9025 188.4375 149.2425 188.4375 148.5625 188.4375 C148.315 189.159375 148.0675 189.88125 147.8125 190.625 C146.43980408 193.71356582 144.83896704 195.94761418 142.5625 198.4375 C141.9025 198.4375 141.2425 198.4375 140.5625 198.4375 C140.5625 199.0975 140.5625 199.7575 140.5625 200.4375 C122.43582811 216.56624212 101.97253588 217.96536522 78.87451172 217.88354492 C75.1749011 217.8749708 71.4768051 217.90397983 67.77734375 217.93554688 C65.40625046 217.93715771 63.03515445 217.93658361 60.6640625 217.93359375 C59.56808746 217.94482773 58.47211243 217.95606171 57.34292603 217.96763611 C50.2297683 217.9031849 44.40514846 217.00999783 39.04385376 212.02561951 C34.47870993 206.89076997 33.1201283 202.35791719 33.3203125 195.640625 C33.96982532 189.73215354 37.27740009 186.43996426 41.55078125 182.734375 C47.73397322 178.74831726 54.301684 179.14273582 61.390625 179.12890625 C63.74088784 179.10374126 66.0911482 179.07834331 68.44140625 179.05273438 C72.12548143 179.02404831 75.8095134 179.00001525 79.49365234 178.98120117 C83.06370415 178.95942965 86.63325044 178.91997763 90.203125 178.87890625 C91.29200012 178.87879044 92.38087524 178.87867462 93.50274658 178.8785553 C100.32800393 178.79109856 106.14596154 177.78279496 112.5625 175.4375 C112.5625 174.7775 112.5625 174.1175 112.5625 173.4375 C113.2225 173.4375 113.8825 173.4375 114.5625 173.4375 C114.5625 172.7775 114.5625 172.1175 114.5625 171.4375 C115.2225 171.4375 115.8825 171.4375 116.5625 171.4375 C117.24596682 169.77765202 117.90838315 168.10913195 118.5625 166.4375 C118.93375 165.57125 119.305 164.705 119.6875 163.8125 C121.8956738 155.29525821 120.9345247 148.95191745 116.5625 141.4375 C116.5625 140.7775 116.5625 140.1175 116.5625 139.4375 C115.9025 139.4375 115.2425 139.4375 114.5625 139.4375 C114.5625 138.7775 114.5625 138.1175 114.5625 137.4375 C114.03398437 137.20933594 113.50546875 136.98117187 112.9609375 136.74609375 C109.7641374 135.00191128 107.01807389 132.77074928 104.1875 130.5 C102.9297621 129.50120814 101.67194747 128.50251289 100.4140625 127.50390625 C99.4535498 126.73844482 99.4535498 126.73844482 98.47363281 125.95751953 C95.51411265 123.60366509 92.53804125 121.27104364 89.5625 118.9375 C88.39052318 118.01705671 87.21864835 117.09648354 86.046875 116.17578125 C85.46873047 115.72154785 84.89058594 115.26731445 84.29492188 114.79931641 C82.59703862 113.46465 80.89996653 112.12895921 79.203125 110.79296875 C75.65947077 108.00369729 72.11225086 105.21900821 68.5625 102.4375 C67.79164063 101.83341309 67.02078125 101.22932617 66.2265625 100.60693359 C63.75685648 98.67333687 61.28497504 96.74255432 58.8125 94.8125 C58.02520508 94.19592529 57.23791016 93.57935059 56.42675781 92.9440918 C55.69295898 92.37215088 54.95916016 91.80020996 54.203125 91.2109375 C53.54860352 90.69966309 52.89408203 90.18838867 52.21972656 89.66162109 C50.56986605 88.36964178 50.56986605 88.36964178 48.5625 87.4375 C48.5625 86.7775 48.5625 86.1175 48.5625 85.4375 C46.9125 84.7775 45.2625 84.1175 43.5625 83.4375 C43.5625 82.7775 43.5625 82.1175 43.5625 81.4375 C42.90507812 81.24414062 42.24765625 81.05078125 41.5703125 80.8515625 C37.28560128 78.83719177 34.02228433 75.87242921 30.4375 72.8125 C23.06047622 66.61979531 15.58323238 60.78465492 7.5625 55.4375 C7.5625 54.7775 7.5625 54.1175 7.5625 53.4375 C6.85351562 53.20289063 6.14453125 52.96828125 5.4140625 52.7265625 C2.03907057 51.20088122 -0.27021764 49.24351672 -3.0625 46.8125 C-4.1192136 45.91444964 -5.1778494 45.01865675 -6.23828125 44.125 C-6.77018066 43.67640625 -7.30208008 43.2278125 -7.85009766 42.765625 C-15.29529182 36.15383936 -15.29529182 36.15383936 -24.375 32.875 C-27.94392453 33.50526389 -27.94392453 33.50526389 -31.4375 34.4375 C-31.4375 35.0975 -31.4375 35.7575 -31.4375 36.4375 C-33.3515625 37.99609375 -33.3515625 37.99609375 -36.0625 39.875 C-40.63745917 43.11927606 -45.09920015 46.46074788 -49.5 49.9375 C-50.38655273 50.63734009 -50.38655273 50.63734009 -51.29101562 51.35131836 C-55.66005463 54.80853168 -60.01258821 58.28637651 -64.3515625 61.78125 C-65.03992188 62.3278125 -65.72828125 62.874375 -66.4375 63.4375 C-67.14648438 64.0046875 -67.85546875 64.571875 -68.5859375 65.15625 C-70.4375 66.4375 -70.4375 66.4375 -72.4375 66.4375 C-72.4375 67.0975 -72.4375 67.7575 -72.4375 68.4375 C-74.81746605 70.37348761 -77.20807101 72.199037 -79.6875 74 C-81.15645488 75.08045067 -82.62520289 76.16118265 -84.09375 77.2421875 C-85.19396484 78.0480127 -85.19396484 78.0480127 -86.31640625 78.87011719 C-88.23887399 80.29072525 -90.13977985 81.73381941 -92.03125 83.1953125 C-93.0728125 83.99710937 -94.114375 84.79890625 -95.1875 85.625 C-96.11046875 86.34042969 -97.0334375 87.05585938 -97.984375 87.79296875 C-102.71508692 90.96435365 -107.88149912 91.07717115 -113.4375 90.4375 C-119.03223244 88.77906145 -122.35483856 85.9497542 -125.52734375 81.12109375 C-128.17995129 76.21433902 -128.33368592 70.6710357 -126.859375 65.3515625 C-124.20531259 59.24721895 -119.54086283 55.51585927 -114.4375 51.4375 C-113.89174316 50.99970215 -113.34598633 50.5619043 -112.78369141 50.11083984 C-109.22678409 47.26472331 -105.6427457 44.45580563 -102.03662109 41.67236328 C-100.63134546 40.58719013 -99.23126396 39.49529764 -97.83203125 38.40234375 C-92.68617021 34.4375 -92.68617021 34.4375 -90.4375 34.4375 C-90.4375 33.7775 -90.4375 33.1175 -90.4375 32.4375 C-88.5234375 30.87890625 -88.5234375 30.87890625 -85.8125 29 C-81.21223886 25.73950564 -76.73425965 22.37350872 -72.3125 18.875 C-71.72033691 18.40803711 -71.12817383 17.94107422 -70.51806641 17.45996094 C-67.87734842 15.37522213 -65.24368536 13.28234091 -62.6171875 11.1796875 C-61.81539063 10.54289062 -61.01359375 9.90609375 -60.1875 9.25 C-59.50171875 8.69957031 -58.8159375 8.14914063 -58.109375 7.58203125 C-56.4375 6.4375 -56.4375 6.4375 -54.4375 6.4375 C-54.4375 5.7775 -54.4375 5.1175 -54.4375 4.4375 C-39.38928201 -9.57014973 -17.03121099 -12.17944163 0 0 Z " fill="#D3B380" transform="translate(202.4375,215.5625)"/>
<path d="M0 0 C4.60326819 2.51876939 7.42075736 5.47488603 10.3125 9.8125 C11.89973728 16.42399965 11.82791676 22.87155253 8.3125 28.8125 C5.54521658 31.80472328 2.5439664 34.33709593 -0.6875 36.8125 C-1.40035156 37.38226563 -2.11320312 37.95203125 -2.84765625 38.5390625 C-4.6875 39.8125 -4.6875 39.8125 -6.6875 39.8125 C-6.6875 40.4725 -6.6875 41.1325 -6.6875 41.8125 C-8.1484375 43.1015625 -8.1484375 43.1015625 -10.0625 44.4375 C-10.68898438 44.88351562 -11.31546875 45.32953125 -11.9609375 45.7890625 C-13.6875 46.8125 -13.6875 46.8125 -15.6875 46.8125 C-15.6875 47.4725 -15.6875 48.1325 -15.6875 48.8125 C-17.53125 50.30078125 -17.53125 50.30078125 -20.1875 52.125 C-26.07416796 56.27624767 -31.61037345 60.77528144 -37.11523438 65.41918945 C-40.49960244 68.2278963 -43.40564389 70.50645122 -47.6875 71.8125 C-47.6875 72.4725 -47.6875 73.1325 -47.6875 73.8125 C-48.595 74.493125 -49.5025 75.17375 -50.4375 75.875 C-55.1839651 79.73290884 -57.23422968 84.56097924 -58.0703125 90.55859375 C-58.3389479 97.01479783 -57.01532928 101.35923232 -53.6875 106.8125 C-53.19443359 107.87984375 -53.19443359 107.87984375 -52.69140625 108.96875 C-51.23128997 111.65036433 -49.54793894 111.85902035 -46.6875 112.8125 C-45.635625 113.34875 -44.58375 113.885 -43.5 114.4375 C-36.91047994 117.24520855 -30.25483309 116.39774569 -23.75512695 113.82470703 C-20.18012965 112.07456666 -17.27241502 109.6241786 -14.25 107.0625 C-12.94554804 105.98929697 -11.64086121 104.91637936 -10.3359375 103.84375 C-9.40152832 103.06644531 -9.40152832 103.06644531 -8.44824219 102.2734375 C-6.11536994 100.33778754 -3.75401413 98.44107427 -1.375 96.5625 C-0.69824219 96.02109375 -0.02148438 95.4796875 0.67578125 94.921875 C2.3125 93.8125 2.3125 93.8125 4.3125 93.8125 C4.3125 93.1525 4.3125 92.4925 4.3125 91.8125 C5.96748811 90.43334324 7.69080374 89.13599612 9.4375 87.875 C10.54021587 87.06928449 11.64172885 86.26192074 12.7421875 85.453125 C13.32452148 85.02580078 13.90685547 84.59847656 14.50683594 84.15820312 C17.57235712 81.87356917 20.56512121 79.49789104 23.5625 77.125 C37.91645761 65.8125 37.91645761 65.8125 40.3125 65.8125 C40.3125 65.1525 40.3125 64.4925 40.3125 63.8125 C42.03083476 62.41215928 43.81379099 61.09044773 45.625 59.8125 C46.61113281 59.11125 47.59726563 58.41 48.61328125 57.6875 C54.33695898 53.71157336 58.34467984 52.73442919 65.3125 52.8125 C71.0620101 54.09491861 75.65482964 57.58321917 79.125 62.25 C81.07188728 68.09066185 81.6833869 75.02322801 79.55078125 80.91796875 C77.71239322 83.86084287 75.56587534 85.65058024 72.3125 86.8125 C72.3125 87.4725 72.3125 88.1325 72.3125 88.8125 C71.00244141 90.01416016 71.00244141 90.01416016 69.1640625 91.3515625 C68.49262207 91.84624023 67.82118164 92.34091797 67.12939453 92.85058594 C66.40606934 93.37426758 65.68274414 93.89794922 64.9375 94.4375 C63.46770349 95.51680548 61.99895314 96.59753706 60.53125 97.6796875 C59.81066406 98.21045898 59.09007812 98.74123047 58.34765625 99.28808594 C54.8498577 101.90807804 51.48896967 104.68568122 48.1328125 107.484375 C46.3125 108.8125 46.3125 108.8125 44.3125 108.8125 C44.3125 109.4725 44.3125 110.1325 44.3125 110.8125 C42.3984375 112.37109375 42.3984375 112.37109375 39.6875 114.25 C35.28247418 117.37560431 30.9841451 120.58457911 26.75 123.9375 C26.17451416 124.3907666 25.59902832 124.8440332 25.00610352 125.31103516 C22.36699152 127.39115498 19.73243862 129.47656771 17.10839844 131.57568359 C-0.24471807 145.45302751 -0.24471807 145.45302751 -9.6875 149.8125 C-10.863125 150.39 -12.03875 150.9675 -13.25 151.5625 C-29.23558275 157.37543918 -46.08831497 155.77980271 -61.6796875 149.6328125 C-75.78023305 142.72558874 -87.36964714 129.79355755 -93.08984375 115.24609375 C-98.59202707 98.03463775 -98.12750023 80.55914135 -90.1875 64.1875 C-89.37919735 62.71514563 -88.54804765 61.25494178 -87.6875 59.8125 C-87.12482422 58.8534375 -87.12482422 58.8534375 -86.55078125 57.875 C-85.5 56.1875 -85.5 56.1875 -83.6875 53.8125 C-83.0275 53.8125 -82.3675 53.8125 -81.6875 53.8125 C-81.419375 53.214375 -81.15125 52.61625 -80.875 52 C-79.68832594 49.81402146 -78.59150887 48.39917406 -76.6875 46.8125 C-76.0275 46.8125 -75.3675 46.8125 -74.6875 46.8125 C-74.6875 46.1525 -74.6875 45.4925 -74.6875 44.8125 C-72.8225189 43.27173412 -70.96171549 41.84496762 -69 40.4375 C-64.38884841 37.07110052 -64.38884841 37.07110052 -59.91796875 33.5234375 C-57.6875 31.8125 -57.6875 31.8125 -55.6875 31.8125 C-55.6875 31.1525 -55.6875 30.4925 -55.6875 29.8125 C-53.84375 28.32421875 -53.84375 28.32421875 -51.1875 26.5 C-45.39113631 22.40049925 -39.90565585 17.99299571 -34.43554688 13.46948242 C-22.70449299 3.8125 -22.70449299 3.8125 -19.6875 3.8125 C-19.6875 3.1525 -19.6875 2.4925 -19.6875 1.8125 C-12.61985342 -1.21649139 -7.56903947 -2.43748729 0 0 Z " fill="#F98634" transform="translate(186.6875,278.1875)"/>
<path d="M0 0 C14.95531242 11.20372381 26.2866575 26.6411937 29.2890625 45.4375 C30.94891885 64.70739476 28.76180393 84.11755555 15.921875 99.63671875 C13.25924956 102.67905286 10.43091929 105.51543552 7.5390625 108.33984375 C6.88164062 109.01789063 6.22421875 109.6959375 5.546875 110.39453125 C-6.97389382 122.48540243 -25.1146444 127.00256163 -42.04394531 126.81054688 C-61.90062602 126.09567595 -78.06585534 117.55522993 -91.4609375 103.33984375 C-104.50896767 89.10992678 -109.51235523 71.16834843 -108.84375 52.21484375 C-107.84516864 36.16217738 -101.05150536 22.23609806 -90.4609375 10.33984375 C-89.89503906 9.70304687 -89.32914063 9.06625 -88.74609375 8.41015625 C-65.78953036 -15.89679322 -27.2668568 -18.39430816 0 0 Z M-63.54296875 34.48828125 C-70.34944006 42.88531743 -73.38874879 51.5153787 -72.4609375 62.33984375 C-70.72777274 71.8281864 -65.92795834 79.03117354 -58.41796875 85.01953125 C-50.30619131 90.49214756 -42.08375472 91.39303227 -32.4609375 90.33984375 C-24.18361992 88.57448364 -17.96973415 83.62026263 -12.4609375 77.33984375 C-6.68703542 68.29494668 -4.779717 58.98635866 -7.109375 48.390625 C-10.31819949 38.55845765 -16.01789208 32.5224812 -24.9765625 27.52734375 C-38.04278019 21.28185605 -53.46773515 24.09169874 -63.54296875 34.48828125 Z " fill="#FBCD5C" transform="translate(265.4609375,76.66015625)"/>
<path d="M0 0 C5.28153049 2.47393724 9.46464736 5.58011238 13.7109375 9.55078125 C15.78995846 11.40853168 18.08253159 12.70586348 20.47265625 14.125 C20.47265625 14.785 20.47265625 15.445 20.47265625 16.125 C21.05587646 16.39812012 21.63909668 16.67124023 22.23999023 16.95263672 C24.42947113 18.10232368 26.24596577 19.36651349 28.1953125 20.8828125 C29.24344116 21.69238403 29.24344116 21.69238403 30.31274414 22.51831055 C31.04614014 23.08976807 31.77953613 23.66122559 32.53515625 24.25 C38.48634549 28.85858565 44.47911111 33.34493227 50.6640625 37.63671875 C51.26089844 38.12785156 51.85773438 38.61898437 52.47265625 39.125 C52.47265625 39.785 52.47265625 40.445 52.47265625 41.125 C53.21515625 41.393125 53.95765625 41.66125 54.72265625 41.9375 C57.36327574 43.07776751 59.32818469 44.21880306 61.47265625 46.125 C61.47265625 46.785 61.47265625 47.445 61.47265625 48.125 C62.01535156 48.36992187 62.55804688 48.61484375 63.1171875 48.8671875 C72.23030079 53.73355977 82.50960022 61.60074008 88.53515625 70 C90.71938588 77.28076544 89.95060696 83.4589278 86.47265625 90.125 C85.81265625 90.125 85.15265625 90.125 84.47265625 90.125 C84.47265625 90.785 84.47265625 91.445 84.47265625 92.125 C83.81265625 92.125 83.15265625 92.125 82.47265625 92.125 C82.47265625 92.785 82.47265625 93.445 82.47265625 94.125 C75.74700293 97.55937616 70.19012216 98.2989366 62.91015625 96 C58.81570275 93.76666173 54.89578468 91.31695612 51.47265625 88.125 C51.47265625 87.465 51.47265625 86.805 51.47265625 86.125 C50.73015625 85.856875 49.98765625 85.58875 49.22265625 85.3125 C46.58203676 84.17223249 44.61712781 83.03119694 42.47265625 81.125 C42.47265625 80.465 42.47265625 79.805 42.47265625 79.125 C41.88564941 78.84736816 41.29864258 78.56973633 40.69384766 78.28369141 C38.59740408 77.19007509 36.81881186 76.00646361 34.93359375 74.5859375 C34.27576904 74.0919043 33.61794434 73.59787109 32.94018555 73.08886719 C31.90438354 72.30237793 31.90438354 72.30237793 30.84765625 71.5 C30.13198486 70.96020508 29.41631348 70.42041016 28.67895508 69.86425781 C24.00675846 66.32728739 19.41133577 62.70815811 14.8671875 59.0078125 C11.19383571 56.11946737 7.36327943 53.45615351 3.52734375 50.7890625 C2.84929687 50.23992187 2.17125 49.69078125 1.47265625 49.125 C1.47265625 48.465 1.47265625 47.805 1.47265625 47.125 C0.70953125 46.83625 -0.05359375 46.5475 -0.83984375 46.25 C-3.52734375 45.125 -3.52734375 45.125 -6.52734375 43.125 C-6.52734375 42.465 -6.52734375 41.805 -6.52734375 41.125 C-7.36265625 40.74601562 -7.36265625 40.74601562 -8.21484375 40.359375 C-15.88257813 36.26646273 -22.73500117 30.50202774 -25.52734375 22.125 C-26.06510979 15.7793607 -25.20724588 11.39651624 -21.52734375 6.125 C-15.42549975 -0.3194609 -8.5539827 -2.96150251 0 0 Z " fill="#62C173" transform="translate(287.52734375,208.875)"/>
<path d="M0 0 C4.28016038 3.68353196 6.29029661 6.61458541 6.87109375 12.37109375 C7.23626502 22.12005996 7.23626502 22.12005996 4.8125 26 C2.76551555 28.10384513 1.30789897 29.33200037 -1.4375 30.3125 C-1.4375 30.9725 -1.4375 31.6325 -1.4375 32.3125 C-2.4275 32.6425 -3.4175 32.9725 -4.4375 33.3125 C-4.1075 31.6625 -3.7775 30.0125 -3.4375 28.3125 C-2.4475 27.9825 -1.4575 27.6525 -0.4375 27.3125 C-0.4375 26.3225 -0.4375 25.3325 -0.4375 24.3125 C-1.0975 23.9825 -1.7575 23.6525 -2.4375 23.3125 C-2.4375 21.6625 -2.4375 20.0125 -2.4375 18.3125 C-1.4475 18.3125 -0.4575 18.3125 0.5625 18.3125 C1.0575 19.7975 1.0575 19.7975 1.5625 21.3125 C2.2225 21.6425 2.8825 21.9725 3.5625 22.3125 C3.42186865 20.02050823 3.27484057 17.72890814 3.125 15.4375 C3.04378906 14.16132813 2.96257812 12.88515625 2.87890625 11.5703125 C2.77043973 8.42949848 2.77043973 8.42949848 1.5625 6.3125 C-0.45419827 5.17899466 -0.45419827 5.17899466 -2.4375 4.3125 C-2.1075 3.9825 -1.7775 3.6525 -1.4375 3.3125 C-7.81993434 0.35766929 -12.5285825 -0.07442024 -19.4375 1.3125 C-20.0975 1.6425 -20.7575 1.9725 -21.4375 2.3125 C-22.08963292 4.33713255 -22.08963292 4.33713255 -22.4375 6.3125 C-23.015 6.43625 -23.5925 6.56 -24.1875 6.6875 C-28.26576404 7.82035112 -30.04138152 8.71832229 -32.4375 12.3125 C-34.13526875 13.29198197 -35.83603842 14.2673394 -37.5625 15.1953125 C-39.46924642 16.33141558 -41.02784409 17.59370452 -42.6875 19.0625 C-45.4375 21.3125 -45.4375 21.3125 -48.4375 21.3125 C-48.4375 22.3025 -48.4375 23.2925 -48.4375 24.3125 C-50.0875 24.3125 -51.7375 24.3125 -53.4375 24.3125 C-49.7804012 20.50445153 -45.94180058 17.20437757 -41.75 14 C-40.87891602 13.3184082 -40.87891602 13.3184082 -39.99023438 12.62304688 C-35.6840343 9.3125 -35.6840343 9.3125 -33.4375 9.3125 C-33.4375 8.6525 -33.4375 7.9925 -33.4375 7.3125 C-31.71916524 5.91215928 -29.93620901 4.59044773 -28.125 3.3125 C-27.13886719 2.61125 -26.15273437 1.91 -25.13671875 1.1875 C-17.20207332 -4.32426528 -8.38616984 -5.91054774 0 0 Z " fill="#EA8941" transform="translate(260.4375,334.6875)"/>
<path d="M0 0 C0.33 0 0.66 0 1 0 C1 2.31 1 4.62 1 7 C0.35289062 7.23589844 -0.29421875 7.47179687 -0.9609375 7.71484375 C-3.2110395 8.80573801 -3.2110395 8.80573801 -3.5390625 11.12890625 C-3.56742188 11.93199219 -3.59578125 12.73507813 -3.625 13.5625 C-3.7265625 16.00390625 -3.7265625 16.00390625 -4 18 C-4.66 18.33 -5.32 18.66 -6 19 C-8.31803442 25.28843922 -8.3071606 32.01342435 -8.25 38.625 C-8.25773438 39.52734375 -8.26546875 40.4296875 -8.2734375 41.359375 C-8.25812234 46.61247641 -7.64742646 50.96340231 -6 56 C-5.54611697 58.66763327 -5.28359939 61.30580583 -5 64 C-4.34 64 -3.68 64 -3 64 C3 76 3 76 4.0078125 78.328125 C4.96158733 80.35077723 4.96158733 80.35077723 8 81 C8 81.66 8 82.32 8 83 C9.32 83.33 10.64 83.66 12 84 C12.33 85.98 12.66 87.96 13 90 C-0.20356289 79.49104178 -8.56307915 64.79273807 -11 48 C-12.63138707 30.94395318 -9.6439672 15.94741405 -1 1 C-0.67 0.67 -0.34 0.34 0 0 Z " fill="#EEDA9A" transform="translate(168,96)"/>
<path d="M0 0 C0.33 0.66 0.66 1.32 1 2 C-0.28245313 5.8473594 -2.18961215 9.37922429 -4 13 C-10.44217481 26.64225255 -9.90040928 45.94409354 -5 60 C-3.51827747 61.63825295 -3.51827747 61.63825295 -2 63 C-1.25613932 65.30988315 -0.57809297 67.64315944 0 70 C-0.99 70 -1.98 70 -3 70 C-12.06127027 53.9888234 -14.4384033 37.50447565 -9.77734375 19.70654297 C-7.68734253 12.37171971 -4.67181648 6.01242469 0 0 Z " fill="#E79C68" transform="translate(102,334)"/>
<path d="M0 0 C2.97 0.495 2.97 0.495 6 1 C6 1.66 6 2.32 6 3 C-8.20433645 14.27560729 -24.05307819 18.68471219 -42 17 C-50.96681292 15.65528508 -59.43243213 13.12912934 -67 8 C-67 7.67 -67 7.34 -67 7 C-65.02 7 -63.04 7 -61 7 C-60.67 7.99 -60.34 8.98 -60 10 C-54.4351541 12.70722233 -48.07781097 12.62628347 -42 13 C-42 13.33 -42 13.66 -42 14 C-36.72 14.33 -31.44 14.66 -26 15 C-26 14.01 -26 13.02 -26 12 C-25.43152344 12.01160156 -24.86304688 12.02320313 -24.27734375 12.03515625 C-19.39329516 12.09223194 -14.81496035 11.81956772 -10 11 C-9.67 10.01 -9.34 9.02 -9 8 C-8.195625 7.87625 -7.39125 7.7525 -6.5625 7.625 C-5.716875 7.41875 -4.87125 7.2125 -4 7 C-3.67 6.34 -3.34 5.68 -3 5 C-2.01 5 -1.02 5 0 5 C-0.495 3.515 -0.495 3.515 -1 2 C-0.67 1.34 -0.34 0.68 0 0 Z " fill="#EA9D66" transform="translate(186,416)"/>
<path d="M0 0 C1.8046875 1.546875 1.8046875 1.546875 3 3 C2.05125 2.835 1.1025 2.67 0.125 2.5 C-3.00088545 2.06620365 -6.09522676 1.84251534 -9.25 1.75 C-10.08015625 1.72421875 -10.9103125 1.6984375 -11.765625 1.671875 C-14.5050612 2.07416983 -15.33416665 2.83285003 -17 5 C-17.71447643 7.10332891 -17.71447643 7.10332891 -18 9 C-18.5775 9.12375 -19.155 9.2475 -19.75 9.375 C-23.82826404 10.50785112 -25.60388152 11.40582229 -28 15 C-29.69776875 15.97948197 -31.39853842 16.9548394 -33.125 17.8828125 C-35.03174642 19.01891558 -36.59034409 20.28120452 -38.25 21.75 C-41 24 -41 24 -44 24 C-44 24.99 -44 25.98 -44 27 C-45.65 27 -47.3 27 -49 27 C-45.3429012 23.19195153 -41.50430058 19.89187757 -37.3125 16.6875 C-36.44141602 16.0059082 -36.44141602 16.0059082 -35.55273438 15.31054688 C-31.2465343 12 -31.2465343 12 -29 12 C-29 11.34 -29 10.68 -29 10 C-27.28166524 8.59965928 -25.49870901 7.27794773 -23.6875 6 C-22.70136719 5.29875 -21.71523437 4.5975 -20.69921875 3.875 C-13.81617603 -0.90627425 -8.26250525 -1.96059447 0 0 Z " fill="#E8A16B" transform="translate(256,332)"/>
<path d="M0 0 C3 1 3 1 4.16796875 2.6875 C8.35456144 12.18352633 8.91037778 23.94027611 5.3125 33.75 C1.95516883 40.67522667 -3.9126612 44.60442782 -10 49 C-10.99 48.34 -11.98 47.68 -13 47 C-12.49210938 46.6596875 -11.98421875 46.319375 -11.4609375 45.96875 C-3.4934805 40.35870537 2.13389008 33.76237668 4 24 C4.98291484 15.25084447 3.22296863 8.11497459 0 0 Z " fill="#EFD483" transform="translate(254,116)"/>
<path d="M0 0 C2.4375 1.6875 2.4375 1.6875 4 3 C3.67 3.66 3.34 4.32 3 5 C1.68 4.67 0.36 4.34 -1 4 C-1 3.34 -1 2.68 -1 2 C-1.99 1.67 -2.98 1.34 -4 1 C-4 0.34 -4 -0.32 -4 -1 C-6.62748631 -0.94014838 -9.24916995 -0.85323776 -11.875 -0.75 C-12.62136719 -0.73582031 -13.36773437 -0.72164063 -14.13671875 -0.70703125 C-16.57138381 -0.64013659 -16.57138381 -0.64013659 -20 0 C-21.26245448 1.78442134 -21.26245448 1.78442134 -22 4 C-24.4609375 6.0703125 -24.4609375 6.0703125 -27.375 8.125 C-28.33148438 8.80820312 -29.28796875 9.49140625 -30.2734375 10.1953125 C-33 12 -33 12 -35.28515625 13.11328125 C-37.56061921 14.28988738 -37.90819285 15.74359856 -39 18 C-39.99 18.33 -40.98 18.66 -42 19 C-42.66 18.34 -43.32 17.68 -44 17 C-41.44595324 14.8646715 -38.88037785 12.74366684 -36.3125 10.625 C-35.59126953 10.02171875 -34.87003906 9.4184375 -34.12695312 8.796875 C-27.4644465 3.32084216 -27.4644465 3.32084216 -23 2 C-23 1.34 -23 0.68 -23 0 C-14.54779102 -3.62237528 -8.54315744 -4.43587021 0 0 Z " fill="#E7A371" transform="translate(190,280)"/>
<path d="M0 0 C0.66 0 1.32 0 2 0 C1.67 1.32 1.34 2.64 1 4 C0.01 4 -0.98 4 -2 4 C-2.226875 4.556875 -2.45375 5.11375 -2.6875 5.6875 C-4.3703574 8.65253447 -6.53621374 10.65353689 -9 13 C-9.639375 13.70125 -10.27875 14.4025 -10.9375 15.125 C-13 17 -13 17 -15.9375 18.4375 C-19.14595057 19.87600896 -19.14595057 19.87600896 -21.625 22.625 C-23.91169918 24.91169918 -24.86626517 25.65180724 -28 26 C-28 25.34 -28 24.68 -28 24 C-27.34 24 -26.68 24 -26 24 C-25.731875 23.401875 -25.46375 22.80375 -25.1875 22.1875 C-24.00082594 20.00152146 -22.90400887 18.58667406 -21 17 C-20.34 17 -19.68 17 -19 17 C-19 16.34 -19 15.68 -19 15 C-17.1350189 13.45923412 -15.27421549 12.03246762 -13.3125 10.625 C-8.70134841 7.25860052 -8.70134841 7.25860052 -4.23046875 3.7109375 C-2 2 -2 2 0 2 C0 1.34 0 0.68 0 0 Z " fill="#EA9960" transform="translate(131,308)"/>
<path d="M0 0 C0.46148437 0.38671875 0.92296875 0.7734375 1.3984375 1.171875 C11.07746722 8.89979596 19.6271927 11.0261807 32 10 C34.79483937 9.51784935 37.29278322 8.86630937 40 8 C39.625 9.9375 39.625 9.9375 39 12 C31.68494152 15.65752924 18.84572435 13.62460633 11.3034668 11.20947266 C8.50416452 10.21195305 5.74120165 9.14728918 3 8 C3 7.01 3 6.02 3 5 C2.34 5 1.68 5 1 5 C0.67 3.35 0.34 1.7 0 0 Z " fill="#EFD897" transform="translate(201,156)"/>
<path d="M0 0 C0.66 0 1.32 0 2 0 C-1.3159959 12.64223438 -10.16546393 22.66489992 -20 31 C-22.83203125 32.30859375 -22.83203125 32.30859375 -25 33 C-24.67 31.68 -24.34 30.36 -24 29 C-22.68 29 -21.36 29 -20 29 C-20 27.68 -20 26.36 -20 25 C-18.68 25 -17.36 25 -16 25 C-15.9175 24.4225 -15.835 23.845 -15.75 23.25 C-14.774018 20.32205399 -13.36488777 18.94755463 -11 17 C-10.01 17 -9.02 17 -8 17 C-8 15.68 -8 14.36 -8 13 C-7.34 13 -6.68 13 -6 13 C-5.81824219 12.39671875 -5.63648438 11.7934375 -5.44921875 11.171875 C-2.82352941 2.82352941 -2.82352941 2.82352941 0 0 Z " fill="#EFD992" transform="translate(288,159)"/>
<path d="M0 0 C1.65018367 0.70770072 3.26026194 1.50765038 4.859375 2.32421875 C2.13682679 3.19543418 0.21274692 3.30153005 -2.703125 3.19921875 C-6.09541822 2.98810313 -6.09541822 2.98810313 -8.078125 4.82421875 C-8.42875 5.31921875 -8.779375 5.81421875 -9.140625 6.32421875 C-10.460625 5.66421875 -11.780625 5.00421875 -13.140625 4.32421875 C-13.470625 4.98421875 -13.800625 5.64421875 -14.140625 6.32421875 C-15.130625 6.65421875 -16.120625 6.98421875 -17.140625 7.32421875 C-17.635625 7.81921875 -18.130625 8.31421875 -18.640625 8.82421875 C-20.140625 10.32421875 -20.140625 10.32421875 -23.140625 11.32421875 C-21.57608538 5.84833007 -18.03942643 3.01763622 -13.21484375 0.19921875 C-9.03384568 -1.56451678 -4.29213509 -1.35499885 0 0 Z " fill="#7EC288" transform="translate(287.140625,208.67578125)"/>
<path d="M0 0 C3.02419525 0.58803797 6.01758453 1.22678118 9 2 C9 2.99 9 3.98 9 5 C9.99 5.33 10.98 5.66 12 6 C12 6.66 12 7.32 12 8 C13.010625 8.103125 14.02125 8.20625 15.0625 8.3125 C19.140212 9.02448146 22.23266596 10.31119508 26 12 C28.98268862 13.0546787 31.98671941 14.03657015 35 15 C35 15.33 35 15.66 35 16 C22.35055405 15.35680783 10.71500868 10.22366658 1.4375 1.625 C0.963125 1.08875 0.48875 0.5525 0 0 Z " fill="#F0D998" transform="translate(181,186)"/>
<path d="M0 0 C5.50643646 5.50643646 4.35861297 16.31958816 4.38330078 23.65332031 C4.23239042 31.52866312 2.4951233 38.54804694 0 46 C-1.00269147 42.8727245 -0.9243381 41.01817424 -0.0625 37.875 C1.08833796 32.70400509 1.19632594 27.70918046 1.1875 22.4375 C1.18806396 21.62716309 1.18862793 20.81682617 1.18920898 19.98193359 C1.51484189 16.18306704 1.51484189 16.18306704 0 13 C-0.07258946 10.81360547 -0.08373783 8.62499611 -0.0625 6.4375 C-0.05347656 5.23996094 -0.04445313 4.04242188 -0.03515625 2.80859375 C-0.02355469 1.88175781 -0.01195312 0.95492187 0 0 Z " fill="#EED995" transform="translate(291,113)"/>
<path d="M0 0 C1.98 0 3.96 0 6 0 C6.33 0.99 6.66 1.98 7 3 C12.5648459 5.70722233 18.92218903 5.62628347 25 6 C25 6.33 25 6.66 25 7 C30.61 7.33 36.22 7.66 42 8 C41.67 8.66 41.34 9.32 41 10 C26.43974936 10.69703328 12.42216978 9.41947063 0 1 C0 0.67 0 0.34 0 0 Z " fill="#E9B589" transform="translate(119,423)"/>
<path d="M0 0 C1.32 0.33 2.64 0.66 4 1 C0.22777993 4.92969415 -3.76892635 8.34097123 -8.0625 11.6875 C-8.97999023 12.41549805 -8.97999023 12.41549805 -9.91601562 13.15820312 C-12.82718471 15.43993024 -15.57112261 17.53781039 -19 19 C-19 16.36 -19 13.72 -19 11 C-16.03 11.495 -16.03 11.495 -13 12 C-12.34 11.01 -11.68 10.02 -11 9 C-10.01 8.67 -9.02 8.34 -8 8 C-7.67 7.01 -7.34 6.02 -7 5 C-5.02 4.67 -3.04 4.34 -1 4 C-0.67 2.68 -0.34 1.36 0 0 Z " fill="#E89D61" transform="translate(221,391)"/>
<path d="M0 0 C-0.86625 0.37125 -0.86625 0.37125 -1.75 0.75 C-6.62158367 3.45643537 -9.94118422 8.20079005 -13.51171875 12.390625 C-14.00285156 12.92171875 -14.49398437 13.4528125 -15 14 C-15.33 14 -15.66 14 -16 14 C-16.33 16.31 -16.66 18.62 -17 21 C-17.33 21 -17.66 21 -18 21 C-18.34545592 15.2424013 -18.38905543 10.91959659 -15 6 C-9.90392583 0.97470464 -7.26375681 -1.42116981 0 0 Z " fill="#CCB589" transform="translate(254,397)"/>
<path d="M0 0 C-3.83228898 4.00814928 -7.92522322 7.42828753 -12.3125 10.8125 C-12.95767578 11.31458984 -13.60285156 11.81667969 -14.26757812 12.33398438 C-15.84267125 13.55905681 -17.42100316 14.7799632 -19 16 C-19.66 15.01 -20.32 14.02 -21 13 C-19.68 13 -18.36 13 -17 13 C-17.66 10.69 -18.32 8.38 -19 6 C-18.34 5.67 -17.68 5.34 -17 5 C-16.67 5.99 -16.34 6.98 -16 8 C-13.98491642 8.73323796 -13.98491642 8.73323796 -12 9 C-12 8.34 -12 7.68 -12 7 C-12.66 7 -13.32 7 -14 7 C-14 6.34 -14 5.68 -14 5 C-12.68 5.33 -11.36 5.66 -10 6 C-9.9175 5.38125 -9.835 4.7625 -9.75 4.125 C-9 2 -9 2 -7.25 0.75 C-4.71262971 -0.0957901 -2.65765704 -0.14764761 0 0 Z " fill="#EE8C47" transform="translate(161,333)"/>
<path d="M0 0 C0.66 0.33 1.32 0.66 2 1 C3.86602738 6.59808214 3.85898614 12.67262638 1.5 18.125 C1.005 19.07375 0.51 20.0225 0 21 C-0.66 21 -1.32 21 -2 21 C-2 21.66 -2 22.32 -2 23 C-2.66 23 -3.32 23 -4 23 C-4 23.66 -4 24.32 -4 25 C-4.99 25.33 -5.98 25.66 -7 26 C-7 24.02 -7 22.04 -7 20 C-5.68 20 -4.36 20 -3 20 C-1.28878246 15.47849025 -0.64776388 11.44382847 -0.375 6.625 C-0.30023438 5.37976563 -0.22546875 4.13453125 -0.1484375 2.8515625 C-0.09945313 1.91054688 -0.05046875 0.96953125 0 0 Z " fill="#91C89A" transform="translate(374,278)"/>
<path d="M0 0 C4.18818811 1.98119407 7.61042687 4.60055631 11.25 7.4375 C11.8996875 7.92798828 12.549375 8.41847656 13.21875 8.92382812 C14.87143743 10.21021614 16.44309837 11.59920481 18 13 C18 13.99 18 14.98 18 16 C17.67 15.34 17.34 14.68 17 14 C15.00371336 13.6451046 13.00309329 13.31421071 11 13 C8.75 12.25 8.75 12.25 7 11 C6.71125 10.154375 6.4225 9.30875 6.125 8.4375 C5.568125 7.2309375 5.568125 7.2309375 5 6 C1.94727535 5.10169161 1.94727535 5.10169161 -1 5 C-0.67 3.35 -0.34 1.7 0 0 Z " fill="#CDB68A" transform="translate(254,257)"/>
<path d="M0 0 C1.98 0 3.96 0 6 0 C4.37660195 1.70884005 2.70680947 3.37446717 1 5 C0.34 5 -0.32 5 -1 5 C-1 5.66 -1 6.32 -1 7 C-2.4609375 8.2890625 -2.4609375 8.2890625 -4.375 9.625 C-5.00148437 10.07101562 -5.62796875 10.51703125 -6.2734375 10.9765625 C-8 12 -8 12 -10 12 C-10 12.66 -10 13.32 -10 14 C-11.64453125 15.54296875 -11.64453125 15.54296875 -13.8125 17.1875 C-14.87404297 18.01314453 -14.87404297 18.01314453 -15.95703125 18.85546875 C-16.63121094 19.23316406 -17.30539063 19.61085938 -18 20 C-18.99 19.67 -19.98 19.34 -21 19 C-20.01 18.67 -19.02 18.34 -18 18 C-18 17.34 -18 16.68 -18 16 C-17.34 16 -16.68 16 -16 16 C-15.67 14.68 -15.34 13.36 -15 12 C-14.01 12 -13.02 12 -12 12 C-12 11.34 -12 10.68 -12 10 C-11.01 10 -10.02 10 -9 10 C-9 9.34 -9 8.68 -9 8 C-7.68 8 -6.36 8 -5 8 C-4.67 6.68 -4.34 5.36 -4 4 C-2.35 3.67 -0.7 3.34 1 3 C0.67 2.01 0.34 1.02 0 0 Z " fill="#E99F65" transform="translate(181,313)"/>
<path d="M0 0 C1.46366342 0.39753821 2.9208935 0.81881384 4.375 1.25 C5.18710938 1.48203125 5.99921875 1.7140625 6.8359375 1.953125 C9.45785454 3.2214892 9.99382318 4.32423308 11 7 C11.99 7 12.98 7 14 7 C14.99 7 15.98 7 17 7 C18.37868281 8.62935241 19.71274093 10.29749607 21 12 C21.66 12.33 22.32 12.66 23 13 C22.01 13.33 21.02 13.66 20 14 C19.67 14.66 19.34 15.32 19 16 C16.39355898 13.89863808 13.79025433 11.7934259 11.1875 9.6875 C10.44951172 9.09259766 9.71152344 8.49769531 8.95117188 7.88476562 C7.88286133 7.01948242 7.88286133 7.01948242 6.79296875 6.13671875 C6.1383667 5.60780029 5.48376465 5.07888184 4.80932617 4.53393555 C3.11343223 3.09616715 1.54606477 1.59627526 0 0 Z " fill="#D1B99B" transform="translate(221,278)"/>
<path d="M0 0 C0.66 0 1.32 0 2 0 C4 3 4 3 3.9375 5 C2.59332403 7.86757539 0.81071526 8.66156416 -2 10 C-2.99 10 -3.98 10 -5 10 C-5 8 -5 8 -3 5.875 C-2.34 5.25625 -1.68 4.6375 -1 4 C-3.91280837 5.30574169 -5.80294493 6.7074208 -8 9 C-11 11 -11 11 -13.1875 10.625 C-13.785625 10.41875 -14.38375 10.2125 -15 10 C-7.12253829 3.13785558 -7.12253829 3.13785558 -2.4375 2.5625 C-1.633125 2.706875 -0.82875 2.85125 0 3 C0 2.01 0 1.02 0 0 Z " fill="#F4883A" transform="translate(212,356)"/>
<path d="M0 0 C1.98 0.99 1.98 0.99 4 2 C4 2.66 4 3.32 4 4 C4.53753906 4.24105469 5.07507813 4.48210937 5.62890625 4.73046875 C8.62224052 6.33316008 11.2218034 8.2748714 13.9375 10.3125 C14.95714844 11.07175781 15.97679687 11.83101563 17.02734375 12.61328125 C19.9215598 14.93702108 22.43355296 17.32957168 25 20 C19.52467532 18.94025974 19.52467532 18.94025974 17 18 C15.75 15.9375 15.75 15.9375 15 14 C14.34 13.855625 13.68 13.71125 13 13.5625 C12.34 13.376875 11.68 13.19125 11 13 C10.731875 12.195625 10.46375 11.39125 10.1875 10.5625 C9.795625 9.716875 9.40375 8.87125 9 8 C5.53294462 6.75938783 5.53294462 6.75938783 2 6 C1.34 5.34 0.68 4.68 0 4 C0 2.68 0 1.36 0 0 Z " fill="#8AC191" transform="translate(345,253)"/>
<path d="M0 0 C0.66 0.33 1.32 0.66 2 1 C1.01 2.485 1.01 2.485 0 4 C1.32 4.66 2.64 5.32 4 6 C3.67 6.66 3.34 7.32 3 8 C-0.0625 8.625 -0.0625 8.625 -3 9 C-3 8.34 -3 7.68 -3 7 C-4.32 7 -5.64 7 -7 7 C-7 7.66 -7 8.32 -7 9 C-8.65 9 -10.3 9 -12 9 C-12 8.67 -12 8.34 -12 8 C-14.64 7.67 -17.28 7.34 -20 7 C-20 6.67 -20 6.34 -20 6 C-19.05898437 5.90203125 -18.11796875 5.8040625 -17.1484375 5.703125 C-7.80593065 4.71562205 -7.80593065 4.71562205 0 0 Z " fill="#EF914B" transform="translate(167,389)"/>
<path d="M0 0 C0.66 0 1.32 0 2 0 C3.77408257 22.24426606 3.77408257 22.24426606 -1 32 C-1.33 32 -1.66 32 -2 32 C-1.34 21.44 -0.68 10.88 0 0 Z " fill="#CDBC93" transform="translate(359,358)"/>
<path d="M0 0 C5.26630019 3.40554079 10.2703193 6.87668862 15 11 C14.01 11.66 13.02 12.32 12 13 C11.5875 12.54625 11.175 12.0925 10.75 11.625 C8.93591905 9.94049626 7.24714373 9.00734029 5 8 C4.67 8.66 4.34 9.32 4 10 C2.68 9.67 1.36 9.34 0 9 C-0.5625 7.0625 -0.5625 7.0625 -1 5 C-0.67 4.67 -0.34 4.34 0 4 C-0.66 3.67 -1.32 3.34 -2 3 C-1 1 -1 1 0 0 Z " fill="#D2BB91" transform="translate(322,310)"/>
<path d="M0 0 C1.39412109 -0.00386719 1.39412109 -0.00386719 2.81640625 -0.0078125 C5.17897476 0.11190036 7.17780763 0.45506767 9.4375 1.125 C9.1075 2.775 8.7775 4.425 8.4375 6.125 C8.1075 5.465 7.7775 4.805 7.4375 4.125 C1.4975 4.125 -4.4425 4.125 -10.5625 4.125 C-10.5625 3.135 -10.5625 2.145 -10.5625 1.125 C-6.9826548 0.30637841 -3.67012899 -0.01020898 0 0 Z " fill="#D3C1A0" transform="translate(178.5625,207.875)"/>
<path d="M0 0 C6.02165764 5.31322733 10.42693645 12.39056088 13 20 C13 21.32 13 22.64 13 24 C12.34 24 11.68 24 11 24 C9.23537317 20.91190305 9 19.76687864 9 16 C8.01 16 7.02 16 6 16 C5.72736328 14.95199219 5.72736328 14.95199219 5.44921875 13.8828125 C5.19785156 12.97273438 4.94648438 12.06265625 4.6875 11.125 C4.44386719 10.22007813 4.20023437 9.31515625 3.94921875 8.3828125 C3.13330148 5.67886681 3.13330148 5.67886681 0 4 C0 2.68 0 1.36 0 0 Z " fill="#F2D98A" transform="translate(278,89)"/>
<path d="M0 0 C0.66 0.33 1.32 0.66 2 1 C0.67533801 4.81650867 -0.59494585 8.07751663 -4.05859375 10.3515625 C-6.34647009 11.36239488 -8.62394487 12.22029279 -11 13 C-12.7634375 13.61875 -12.7634375 13.61875 -14.5625 14.25 C-15.366875 14.4975 -16.17125 14.745 -17 15 C-13.59049601 11.49094845 -10.05958699 8.31826195 -6.25 5.25 C-3.02987225 2.73321911 -3.02987225 2.73321911 0 0 Z " fill="#EC9753" transform="translate(186,374)"/>
<path d="M0 0 C4.12751449 0.60698743 7.3321148 2.03810791 11 4 C11 4.66 11 5.32 11 6 C11.99 6.33 12.98 6.66 14 7 C16.88535357 9.46103687 18.45712148 11.19985035 19 15 C15.03935893 13.25731793 11.25563451 10.85325271 8 8 C8 7.34 8 6.68 8 6 C7.236875 5.7525 6.47375 5.505 5.6875 5.25 C2.7635955 3.89004442 1.69995644 2.68414174 0 0 Z " fill="#CFBE9B" transform="translate(202,263)"/>
<path d="M0 0 C0.66 0 1.32 0 2 0 C1.835 1.134375 1.67 2.26875 1.5 3.4375 C0.53859683 11.35165946 0.95662936 18.28262694 3 26 C2.34 26 1.68 26 1 26 C0.67 25.01 0.34 24.02 0 23 C-0.66 22.67 -1.32 22.34 -2 22 C-2 15.4 -2 8.8 -2 2 C-1.34 2 -0.68 2 0 2 C0 1.34 0 0.68 0 0 Z " fill="#F2DA92" transform="translate(193,122)"/>
<path d="M0 0 C0.66 0.33 1.32 0.66 2 1 C2 1.66 2 2.32 2 3 C0.02 3.33 -1.96 3.66 -4 4 C-4.33 4.99 -4.66 5.98 -5 7 C-7.328125 8.97265625 -7.328125 8.97265625 -10.25 11.0625 C-11.20390625 11.75472656 -12.1578125 12.44695312 -13.140625 13.16015625 C-15.72614644 14.82379095 -18.11029346 15.98227489 -21 17 C-15.60023743 9.99490261 -8.35391385 3.30143757 0 0 Z " fill="#F1DC99" transform="translate(196,71)"/>
<path d="M0 0 C1.63021471 2.44532206 3.07998057 4.87020878 4.5 7.4375 C4.9228125 8.19933594 5.345625 8.96117187 5.78125 9.74609375 C7 12 7 12 7.96875 14.22265625 C8.93960258 16.34756763 8.93960258 16.34756763 12 17 C12 17.66 12 18.32 12 19 C13.32 19.33 14.64 19.66 16 20 C16.33 21.98 16.66 23.96 17 26 C9.89254187 20.34304353 3.33051802 13.6201643 0 5 C-0.1875 2.125 -0.1875 2.125 0 0 Z " fill="#EFD78B" transform="translate(164,160)"/>
<path d="M0 0 C0 1.32 0 2.64 0 4 C-0.66 4 -1.32 4 -2 4 C-2.33 4.66 -2.66 5.32 -3 6 C-7.50591079 10.39601052 -10.82969626 11.82976998 -17 13 C-4.8125 0 -4.8125 0 0 0 Z " fill="#D4BB9A" transform="translate(112,250)"/>
<path d="M0 0 C4.8066595 0.43696905 6.83321712 1.38081956 10 5 C10.66 5.33 11.32 5.66 12 6 C12.33 4.35 12.66 2.7 13 1 C13.66 1.33 14.32 1.66 15 2 C14.01 3.485 14.01 3.485 13 5 C13.61875 5.0825 14.2375 5.165 14.875 5.25 C17 6 17 6 18.25 8.0625 C18.4975 8.701875 18.745 9.34125 19 10 C18.01 10.495 18.01 10.495 17 11 C16.67 10.34 16.34 9.68 16 9 C14.824375 8.938125 13.64875 8.87625 12.4375 8.8125 C6.94309724 8.30578293 3.62273163 4.93104921 0 1 C0 0.67 0 0.34 0 0 Z " fill="#F38633" transform="translate(109,415)"/>
<path d="M0 0 C0.33 0.66 0.66 1.32 1 2 C1.99 2.33 2.98 2.66 4 3 C4.33 3.99 4.66 4.98 5 6 C8.3 6.66 11.6 7.32 15 8 C15 8.66 15 9.32 15 10 C8.45336558 10.54555287 3.47621253 9.8277608 -2 6 C-2.33 5.34 -2.66 4.68 -3 4 C-2.01 4 -1.02 4 0 4 C0 2.68 0 1.36 0 0 Z " fill="#D2BD9B" transform="translate(83,296)"/>
<path d="M0 0 C9.67406372 0.65959525 18.4949826 5.0300998 26 11 C24.68 11.33 23.36 11.66 22 12 C21.67 11.01 21.34 10.02 21 9 C18.69 8.67 16.38 8.34 14 8 C14 7.34 14 6.68 14 6 C7.11175931 3.59009896 7.11175931 3.59009896 0 2 C0 1.34 0 0.68 0 0 Z " fill="#EED694" transform="translate(241,67)"/>
<path d="M0 0 C0.33 0.99 0.66 1.98 1 3 C0.34 3 -0.32 3 -1 3 C-1 3.99 -1 4.98 -1 6 C-2.32 6.33 -3.64 6.66 -5 7 C-5 7.66 -5 8.32 -5 9 C-5.969375 9.28875 -6.93875 9.5775 -7.9375 9.875 C-11.10664203 10.64214682 -11.10664203 10.64214682 -12 13 C-14.5625 13.625 -14.5625 13.625 -17 14 C-13.46843481 10.31118515 -9.81465908 7.22617756 -5.6875 4.1875 C-5.13771484 3.78080078 -4.58792969 3.37410156 -4.02148438 2.95507812 C-2.68374453 1.96631389 -1.34226377 0.98261415 0 0 Z " fill="#D5C4A4" transform="translate(140,227)"/>
<path d="M0 0 C0.33 0 0.66 0 1 0 C1.03738281 0.72445312 1.07476562 1.44890625 1.11328125 2.1953125 C1.4898828 7.73357059 1.81216261 12.27727795 5 17 C6.31963709 18.01800576 7.65009646 19.02248365 9 20 C9 20.99 9 21.98 9 23 C4.50942081 21.50314027 2.3347533 17.89704176 0 14 C-0.89214652 11.32356043 -1.13540211 9.74615622 -1.125 7 C-1.12757813 6.319375 -1.13015625 5.63875 -1.1328125 4.9375 C-1 3 -1 3 0 0 Z " fill="#95C99C" transform="translate(263,220)"/>
<path d="M0 0 C4.455 0.99 4.455 0.99 9 2 C8.67 2.99 8.34 3.98 8 5 C9.98 5.66 11.96 6.32 14 7 C14 7.66 14 8.32 14 9 C16.475 9.99 16.475 9.99 19 11 C17.02 11.99 17.02 11.99 15 13 C13.66102417 12.04956626 12.32894573 11.08940853 11 10.125 C10.2575 9.59132813 9.515 9.05765625 8.75 8.5078125 C8.1725 8.01023437 7.595 7.51265625 7 7 C7 6.34 7 5.68 7 5 C6.21625 4.731875 5.4325 4.46375 4.625 4.1875 C2 3 2 3 0 0 Z " fill="#8EC79A" transform="translate(332,290)"/>
<path d="M0 0 C0.66 0 1.32 0 2 0 C2.18175781 0.54269531 2.36351563 1.08539063 2.55078125 1.64453125 C2.80214844 2.35996094 3.05351563 3.07539063 3.3125 3.8125 C3.55613281 4.52019531 3.79976563 5.22789062 4.05078125 5.95703125 C4.8865937 8.06182881 4.8865937 8.06182881 6.53125 9.53125 C8.890714 11.890714 9.22319617 14.83303054 10 18 C9.01 18 8.02 18 7 18 C6.01070539 16.13032395 5.03399531 14.25398622 4.0625 12.375 C3.24458984 10.80878906 3.24458984 10.80878906 2.41015625 9.2109375 C1.03330283 6.07583082 0.40157784 3.38545368 0 0 Z " fill="#E59F6B" transform="translate(92,386)"/>
<path d="M0 0 C1.32 0.66 2.64 1.32 4 2 C2.8803014 3.00593243 1.7540588 4.0045849 0.625 5 C-0.31472656 5.8353125 -0.31472656 5.8353125 -1.2734375 6.6875 C-3 8 -3 8 -5 8 C-5 8.66 -5 9.32 -5 10 C-6.98 10.99 -8.96 11.98 -11 13 C-11.33 11.35 -11.66 9.7 -12 8 C-9.03 8.495 -9.03 8.495 -6 9 C-5.67 7.68 -5.34 6.36 -5 5 C-4.01 5 -3.02 5 -2 5 C-1.855625 4.360625 -1.71125 3.72125 -1.5625 3.0625 C-1 1 -1 1 0 0 Z " fill="#E59D65" transform="translate(236,379)"/>
<path d="M0 0 C1.44037669 0.93307421 2.87718985 1.87165077 4.3125 2.8125 C5.11300781 3.33457031 5.91351563 3.85664063 6.73828125 4.39453125 C8.74000268 5.81544231 10.41626519 7.12924529 12 9 C12 9.66 12 10.32 12 11 C9.125 11.125 9.125 11.125 6 11 C5.34 10.34 4.68 9.68 4 9 C4.33 8.01 4.66 7.02 5 6 C3.68 5.67 2.36 5.34 1 5 C0.67 3.35 0.34 1.7 0 0 Z " fill="#CFB68E" transform="translate(280,277)"/>
<path d="M0 0 C6.25322296 4.03576801 12.186102 8.35437938 18 13 C17.01 13.66 16.02 14.32 15 15 C13.5 13.625 13.5 13.625 12 12 C12 11.34 12 10.68 12 10 C10.88625 9.8453125 10.88625 9.8453125 9.75 9.6875 C6.78277013 8.94569253 5.19447117 8.11319446 3 6 C3 5.01 3 4.02 3 3 C2.01 3 1.02 3 0 3 C0 2.01 0 1.02 0 0 Z " fill="#D5C5AA" transform="translate(221,231)"/>
<path d="M0 0 C0.33 1.32 0.66 2.64 1 4 C0.34 4 -0.32 4 -1 4 C-1.10634766 5.11955078 -1.10634766 5.11955078 -1.21484375 6.26171875 C-2.22000833 9.76729272 -3.63429696 10.70914288 -6.5625 12.8125 C-7.38878906 13.41707031 -8.21507812 14.02164063 -9.06640625 14.64453125 C-9.70449219 15.09183594 -10.34257812 15.53914062 -11 16 C-11.99 15.34 -12.98 14.68 -14 14 C-13.23816406 13.48953125 -13.23816406 13.48953125 -12.4609375 12.96875 C-7.21354565 9.27395724 -3.56564909 5.32146114 0 0 Z " fill="#F2D996" transform="translate(255,149)"/>
<path d="M0 0 C2.80925645 2.35370135 3.49545982 4.00211649 3.875 7.625 C4.26401916 12.81954991 3.40183789 17.35503598 1 22 C0.34 22.33 -0.32 22.66 -1 23 C-1.33 22.01 -1.66 21.02 -2 20 C-1.01 19.67 -0.02 19.34 1 19 C1.20852314 12.59370576 1.1583195 7.07027358 -1 1 C-0.67 0.67 -0.34 0.34 0 0 Z " fill="#E3A977" transform="translate(194,285)"/>
<path d="M0 0 C2.41313129 0.46921997 4.80619179 0.9501636 7.1875 1.5625 C9.01326836 2.07821351 9.01326836 2.07821351 11 2 C11 2.99 11 3.98 11 5 C11.66 5 12.32 5 13 5 C13.33 7.31 13.66 9.62 14 12 C13.360625 11.29875 12.72125 10.5975 12.0625 9.875 C9.00038078 6.77748056 5.4594712 4.55509759 1.79296875 2.234375 C1.20128906 1.82703125 0.60960937 1.4196875 0 1 C0 0.67 0 0.34 0 0 Z " fill="#F4DB91" transform="translate(240,104)"/>
<path d="M0 0 C2.97 0.495 2.97 0.495 6 1 C6 1.66 6 2.32 6 3 C3.734375 4.76171875 3.734375 4.76171875 0.75 6.6875 C-0.22453125 7.33074219 -1.1990625 7.97398437 -2.203125 8.63671875 C-5 10 -5 10 -7.359375 9.70703125 C-7.90078125 9.47371094 -8.4421875 9.24039062 -9 9 C-9 8.67 -9 8.34 -9 8 C-8.195625 7.87625 -7.39125 7.7525 -6.5625 7.625 C-5.716875 7.41875 -4.87125 7.2125 -4 7 C-3.67 6.34 -3.34 5.68 -3 5 C-2.01 5 -1.02 5 0 5 C-0.33 4.01 -0.66 3.02 -1 2 C-0.67 1.34 -0.34 0.68 0 0 Z " fill="#E89759" transform="translate(186,416)"/>
<path d="M0 0 C1.32 0.33 2.64 0.66 4 1 C4 1.66 4 2.32 4 3 C5.0828125 3.12375 5.0828125 3.12375 6.1875 3.25 C9.58926868 4.15713831 11.45466084 5.60010879 14 8 C14 8.66 14 9.32 14 10 C14.66 10.33 15.32 10.66 16 11 C15.01 11.33 14.02 11.66 13 12 C13 11.34 13 10.68 13 10 C12.43796875 9.74347656 11.8759375 9.48695313 11.296875 9.22265625 C8.71960738 7.85074338 6.54832724 6.23635416 4.25 4.4375 C3.45078125 3.81746094 2.6515625 3.19742187 1.828125 2.55859375 C1.22484375 2.04425781 0.6215625 1.52992188 0 1 C0 0.67 0 0.34 0 0 Z " fill="#8CC393" transform="translate(317,278)"/>
<path d="M0 0 C1.65 0 3.3 0 5 0 C5.33 0.99 5.66 1.98 6 3 C7.32796291 3.35412344 8.66216607 3.68521554 10 4 C11.75 5.5625 11.75 5.5625 13 7 C12.67 7.99 12.34 8.98 12 10 C3.55353075 3.84965831 3.55353075 3.84965831 0 0 Z " fill="#89C590" transform="translate(291,258)"/>
<path d="M0 0 C0.99 0.33 1.98 0.66 3 1 C2.38125 1.70125 1.7625 2.4025 1.125 3.125 C-3.1472282 8.90507344 -3.477294 15.03975693 -4 22 C-4.33 22 -4.66 22 -5 22 C-5 16.72 -5 11.44 -5 6 C-4.34 5.67 -3.68 5.34 -3 5 C-2.67 4.01 -2.34 3.02 -2 2 C-1.34 2 -0.68 2 0 2 C0 1.34 0 0.68 0 0 Z " fill="#E6A270" transform="translate(132,354)"/>
<path d="M0 0 C-0.375 1.9375 -0.375 1.9375 -1 4 C-3.34852528 5.17426264 -4.73774065 5.11508173 -7.3515625 5.09765625 C-8.20234375 5.09443359 -9.053125 5.09121094 -9.9296875 5.08789062 C-10.81914062 5.07951172 -11.70859375 5.07113281 -12.625 5.0625 C-13.5221875 5.05798828 -14.419375 5.05347656 -15.34375 5.04882812 C-17.56256648 5.03702591 -19.78125018 5.02056155 -22 5 C-22 4.67 -22 4.34 -22 4 C-17.38 4 -12.76 4 -8 4 C-8 3.34 -8 2.68 -8 2 C-2.25 0 -2.25 0 0 0 Z " fill="#F2D686" transform="translate(241,164)"/>
<path d="M0 0 C3.27066566 -0.08706892 6.54103365 -0.14041241 9.8125 -0.1875 C10.74126953 -0.21263672 11.67003906 -0.23777344 12.62695312 -0.26367188 C13.9659668 -0.27817383 13.9659668 -0.27817383 15.33203125 -0.29296875 C16.56530151 -0.31653442 16.56530151 -0.31653442 17.82348633 -0.34057617 C20.47502434 0.07433079 21.33263592 0.95529751 23 3 C21 4 21 4 17.625 3.0625 C12.13184386 1.55238881 6.65144695 1.83045659 1 2 C0.67 1.34 0.34 0.68 0 0 Z " fill="#F1D99F" transform="translate(217,100)"/>
<path d="M0 0 C1.32 0.33 2.64 0.66 4 1 C0.29909479 4.9252025 -3.54959656 7.94580156 -8 11 C-7.67 9.02 -7.34 7.04 -7 5 C-5.02 4.67 -3.04 4.34 -1 4 C-0.67 2.68 -0.34 1.36 0 0 Z " fill="#EAAB76" transform="translate(221,391)"/>
<path d="M0 0 C1.27310312 0.93441535 2.543388 1.87267111 3.8125 2.8125 C4.52019531 3.33457031 5.22789062 3.85664063 5.95703125 4.39453125 C7.78531393 5.83128877 9.39896688 7.31815763 11 9 C8.36 9 5.72 9 3 9 C2.34 7.35 1.68 5.7 1 4 C0.34 4 -0.32 4 -1 4 C-0.67 2.68 -0.34 1.36 0 0 Z " fill="#8AC697" transform="translate(313,228)"/>
<path d="M0 0 C4 2.66666667 8 5.33333333 12 8 C11.67 8.66 11.34 9.32 11 10 C7.7 9.01 4.4 8.02 1 7 C0.67 4.69 0.34 2.38 0 0 Z " fill="#8BC697" transform="translate(328,240)"/>
<path d="M0 0 C3.70653731 1.23551244 4.64915435 2.96665078 7 6 C7.66 6.33 8.32 6.66 9 7 C8.01 7.33 7.02 7.66 6 8 C5.67 8.66 5.34 9.32 5 10 C2.5 8.375 2.5 8.375 0 6 C-0.3125 2.75 -0.3125 2.75 0 0 Z " fill="#D3BB90" transform="translate(235,284)"/>
<path d="M0 0 C0.99 0.33 1.98 0.66 3 1 C-0.49359465 4.59634744 -4.11098131 7.83451967 -8 11 C-8.33 9.68 -8.66 8.36 -9 7 C-7.68 7 -6.36 7 -5 7 C-5 6.01 -5 5.02 -5 4 C-2.6875 1.75 -2.6875 1.75 0 0 Z " fill="#D1C2A2" transform="translate(149,264)"/>
<path d="M0 0 C1.98 0 3.96 0 6 0 C4.37660195 1.70884005 2.70680947 3.37446717 1 5 C0.34 5 -0.32 5 -1 5 C-1 5.66 -1 6.32 -1 7 C-4.46153846 10 -4.46153846 10 -7 10 C-7 9.34 -7 8.68 -7 8 C-6.34 8 -5.68 8 -5 8 C-4.67 6.68 -4.34 5.36 -4 4 C-2.35 3.67 -0.7 3.34 1 3 C0.67 2.01 0.34 1.02 0 0 Z " fill="#E7A677" transform="translate(181,313)"/>
<path d="M0 0 C-2 2 -2 2 -4.61376953 2.13525391 C-5.69255371 2.08288574 -6.77133789 2.03051758 -7.8828125 1.9765625 C-9.04941406 1.925 -10.21601563 1.8734375 -11.41796875 1.8203125 C-12.64128906 1.75585938 -13.86460937 1.69140625 -15.125 1.625 C-16.35605469 1.56828125 -17.58710938 1.5115625 -18.85546875 1.453125 C-21.90420806 1.31132317 -24.95216388 1.15988027 -28 1 C-28 0.67 -28 0.34 -28 0 C-24.08375299 -0.19706355 -20.16699634 -0.38099159 -16.25 -0.5625 C-15.13882812 -0.61857422 -14.02765625 -0.67464844 -12.8828125 -0.73242188 C-11.81289063 -0.78076172 -10.74296875 -0.82910156 -9.640625 -0.87890625 C-8.65610352 -0.9260376 -7.67158203 -0.97316895 -6.65722656 -1.02172852 C-4.2293192 -1.00187518 -2.30838443 -0.71119313 0 0 Z " fill="#D3C8BB" transform="translate(309,395)"/>
<path d="M0 0 C0 0.66 0 1.32 0 2 C-5.57432514 3.66251802 -9.3067505 4.18609365 -15 3 C-15 2.67 -15 2.34 -15 2 C-9.77487721 0.53329887 -5.4185766 -0.22577402 0 0 Z " fill="#CFBC99" transform="translate(319,428)"/>
<path d="M0 0 C0.66 0 1.32 0 2 0 C0.60485497 4.43909781 -1.47695811 6.98024981 -5 10 C-7.3125 10.8125 -7.3125 10.8125 -9 11 C-9 10.34 -9 9.68 -9 9 C-8.34 9 -7.68 9 -7 9 C-6.731875 8.401875 -6.46375 7.80375 -6.1875 7.1875 C-5.00082594 5.00152146 -3.90400887 3.58667406 -2 2 C-1.34 2 -0.68 2 0 2 C0 1.34 0 0.68 0 0 Z " fill="#E9AB84" transform="translate(112,323)"/>
<path d="M0 0 C0.66 0.33 1.32 0.66 2 1 C0.19511787 3.86733048 -1.6317567 6.56775013 -4 9 C-7.375 9.5 -7.375 9.5 -10 9 C-9.34 8.67 -8.68 8.34 -8 8 C-8 7.34 -8 6.68 -8 6 C-6.25 4.4921875 -6.25 4.4921875 -4 2.875 C-3.2575 2.33617187 -2.515 1.79734375 -1.75 1.2421875 C-1.1725 0.83226562 -0.595 0.42234375 0 0 Z " fill="#D5C3A2" transform="translate(156,214)"/>
<path d="M0 0 C0.99 0.33 1.98 0.66 3 1 C0 5 -3 9 -6 13 C-5.67 10.36 -5.34 7.72 -5 5 C-4.34 5 -3.68 5 -3 5 C-2.87625 4.360625 -2.7525 3.72125 -2.625 3.0625 C-2.41875 2.381875 -2.2125 1.70125 -2 1 C-1.34 0.67 -0.68 0.34 0 0 Z " fill="#F2DB99" transform="translate(201,109)"/>
<path d="M0 0 C-0.33 0.99 -0.66 1.98 -1 3 C-1.66 3 -2.32 3 -3 3 C-3 3.66 -3 4.32 -3 5 C-4.65 5 -6.3 5 -8 5 C-8 4.67 -8 4.34 -8 4 C-10.64 3.67 -13.28 3.34 -16 3 C-16 2.67 -16 2.34 -16 2 C-13.70858188 1.66496236 -11.41685737 1.33201958 -9.125 1 C-7.21074219 0.7215625 -7.21074219 0.7215625 -5.2578125 0.4375 C-2 0 -2 0 0 0 Z " fill="#ECA674" transform="translate(163,393)"/>
<path d="M0 0 C0.66 0.99 1.32 1.98 2 3 C4.56282742 3.72965366 4.56282742 3.72965366 7 4 C4.19195732 6.96404505 1.81684226 9.44499019 -2 11 C-2.33 10.01 -2.66 9.02 -3 8 C-1.68 8 -0.36 8 1 8 C0.34 5.69 -0.32 3.38 -1 1 C-0.67 0.67 -0.34 0.34 0 0 Z " fill="#EDA06A" transform="translate(143,338)"/>
<path d="M0 0 C0.7765373 2.66241359 1.15032919 5.25136507 1.4375 8 C1.71830876 10.485848 1.99291489 11.98582978 3.125 14.25 C4.27174109 16.54348218 3.7024811 17.60562778 3 20 C-0.41480101 14.13081076 -1.81811639 9.79975427 -1 3 C-0.67 2.01 -0.34 1.02 0 0 Z " fill="#DCCBB7" transform="translate(76,280)"/>
<path d="M0 0 C2 3 2 3 3 5 C5.01669827 6.13350534 5.01669827 6.13350534 7 7 C7 7.99 7 8.98 7 10 C3.96147295 8.59023295 1.4060405 6.91129772 -1.25 4.875 C-1.95640625 4.33617187 -2.6628125 3.79734375 -3.390625 3.2421875 C-3.92171875 2.83226562 -4.4528125 2.42234375 -5 2 C-4.34 1.67 -3.68 1.34 -3 1 C-2.01 1.33 -1.02 1.66 0 2 C0 1.34 0 0.68 0 0 Z " fill="#86C695" transform="translate(310,268)"/>
<path d="M0 0 C2.31 0.33 4.62 0.66 7 1 C7.268125 1.804375 7.53625 2.60875 7.8125 3.4375 C8.204375 4.283125 8.59625 5.12875 9 6 C9.99 6.33 10.98 6.66 12 7 C12 7.66 12 8.32 12 9 C11.34 9 10.68 9 10 9 C10 8.34 10 7.68 10 7 C9.236875 6.71125 8.47375 6.4225 7.6875 6.125 C5 5 5 5 2 3 C2 2.34 2 1.68 2 1 C1.34 0.67 0.68 0.34 0 0 Z " fill="#91C69D" transform="translate(279,249)"/>
<path d="M0 0 C3.81684226 1.55500981 6.19195732 4.03595495 9 7 C6 8 6 8 3.375 7.4375 C1 6 1 6 0.1875 2.875 C0.125625 1.92625 0.06375 0.9775 0 0 Z " fill="#D2BF9D" transform="translate(209,222)"/>
<path d="M0 0 C0.33 0.99 0.66 1.98 1 3 C-0.93254772 5.0245738 -2.63158688 6.42105792 -5 8 C-6.32 7.67 -7.64 7.34 -9 7 C-6.03 4.69 -3.06 2.38 0 0 Z " fill="#EAA46F" transform="translate(206,359)"/>
<path d="M0 0 C0.66 0 1.32 0 2 0 C1.67 1.32 1.34 2.64 1 4 C0.01 4 -0.98 4 -2 4 C-2.226875 4.639375 -2.45375 5.27875 -2.6875 5.9375 C-4 8 -4 8 -6.625 8.75 C-7.40875 8.8325 -8.1925 8.915 -9 9 C-6.19195732 6.03595495 -3.81684226 3.55500981 0 2 C0 1.34 0 0.68 0 0 Z " fill="#E7A672" transform="translate(131,308)"/>
<path d="M0 0 C0.66 0.33 1.32 0.66 2 1 C1.34 1.66 0.68 2.32 0 3 C-0.68177998 5.65719837 -0.68177998 5.65719837 -1.125 8.625 C-1.29257813 9.62789063 -1.46015625 10.63078125 -1.6328125 11.6640625 C-1.75398438 12.43492187 -1.87515625 13.20578125 -2 14 C-4.30143236 10.54785147 -4.13833854 9.76520676 -3.625 5.8125 C-3.51414062 4.91144531 -3.40328125 4.01039063 -3.2890625 3.08203125 C-3.19367188 2.39496094 -3.09828125 1.70789063 -3 1 C-2.01 0.67 -1.02 0.34 0 0 Z " fill="#CBB288" transform="translate(80,278)"/>
<path d="M0 0 C-2.34295943 1.56197295 -4.69014198 3.10846459 -7.0625 4.625 C-7.75472656 5.07101563 -8.44695312 5.51703125 -9.16015625 5.9765625 C-11 7 -11 7 -13 7 C-13 5.68 -13 4.36 -13 3 C-11.68 3 -10.36 3 -9 3 C-9 2.34 -9 1.68 -9 1 C-5.92677456 0.08941469 -3.19902639 -0.08886184 0 0 Z " fill="#F4DD9D" transform="translate(217,102)"/>
<path d="M0 0 C1.4540625 0.0309375 1.4540625 0.0309375 2.9375 0.0625 C2.9375 0.7225 2.9375 1.3825 2.9375 2.0625 C0.8125 3.8125 0.8125 3.8125 -2.0625 5.0625 C-5.375 4.25 -5.375 4.25 -8.0625 3.0625 C-7.423125 2.753125 -6.78375 2.44375 -6.125 2.125 C-2.0825 0.0425 -2.0825 0.0425 0 0 Z " fill="#F18640" transform="translate(136.0625,423.9375)"/>
<path d="M0 0 C3.98381075 2.16264012 6.88983545 4.71211176 10 8 C4.5388601 7.11917098 4.5388601 7.11917098 2 6 C0.5 2.875 0.5 2.875 0 0 Z " fill="#92CA9B" transform="translate(360,265)"/>
<path d="M0 0 C2.31 0.33 4.62 0.66 7 1 C7 1.99 7 2.98 7 4 C8.65 4.33 10.3 4.66 12 5 C11.34 6.32 10.68 7.64 10 9 C8.33043913 7.69118353 6.66441696 6.37785174 5 5.0625 C4.071875 4.33160156 3.14375 3.60070312 2.1875 2.84765625 C1.465625 2.23792969 0.74375 1.62820312 0 1 C0 0.67 0 0.34 0 0 Z " fill="#D7C4A7" transform="translate(190,254)"/>
<path d="M0 0 C1.98 0.99 1.98 0.99 4 2 C4 2.66 4 3.32 4 4 C5.32 4.66 6.64 5.32 8 6 C8 6.33 8 6.66 8 7 C6.824375 6.9690625 6.824375 6.9690625 5.625 6.9375 C3.01885039 6.81315937 3.01885039 6.81315937 1 8 C0.67 5.36 0.34 2.72 0 0 Z " fill="#87C491" transform="translate(304,221)"/>
<path d="M0 0 C0 0.66 0 1.32 0 2 C-0.763125 2.45375 -1.52625 2.9075 -2.3125 3.375 C-5.06911756 4.79668199 -5.06911756 4.79668199 -6.5 7.125 C-8 9 -8 9 -10.6875 9.75 C-11.450625 9.8325 -12.21375 9.915 -13 10 C-3.28571429 0 -3.28571429 0 0 0 Z " fill="#EAB385" transform="translate(182,379)"/>
<path d="M0 0 C0.33 0 0.66 0 1 0 C1.08150744 2.06183633 1.1394194 4.12461349 1.1875 6.1875 C1.22230469 7.33605469 1.25710938 8.48460937 1.29296875 9.66796875 C0.97622579 13.27039199 0.08533398 15.09366839 -2 18 C-2.66 17.01 -3.32 16.02 -4 15 C-3.01 14.67 -2.02 14.34 -1 14 C-0.67 9.38 -0.34 4.76 0 0 Z " fill="#E2AD86" transform="translate(266,344)"/>
<path d="M0 0 C4.43458973 1.3937282 6.87378374 3.60582235 10 7 C5.73138235 7 3.51711665 5.34474443 0 3 C0 2.01 0 1.02 0 0 Z " fill="#D0BA99" transform="translate(240,247)"/>
<path d="M0 0 C0.33 0 0.66 0 1 0 C1.25 2.3125 1.25 2.3125 1 5 C-0.8125 6.875 -0.8125 6.875 -3 8 C-3.99 7.67 -4.98 7.34 -6 7 C-5.02433888 5.83040013 -4.044375 4.66438823 -3.0625 3.5 C-2.51722656 2.8503125 -1.97195312 2.200625 -1.41015625 1.53125 C-0.71212891 0.77328125 -0.71212891 0.77328125 0 0 Z " fill="#D9C3A0" transform="translate(83,271)"/>
<path d="M0 0 C-8.261959 4.40774487 -8.261959 4.40774487 -13 5 C-13 4.34 -13 3.68 -13 3 C-9.2375892 0.23352147 -4.50832345 -2.25416172 0 0 Z " fill="#EEDC99" transform="translate(259,195)"/>
<path d="M0 0 C5.45479185 0.56820748 9.91059256 1.94637945 15 4 C15 4.33 15 4.66 15 5 C9.72684667 4.5547115 4.98229776 3.91626837 0 2 C0 1.34 0 0.68 0 0 Z " fill="#F2DDA3" transform="translate(241,67)"/>
<path d="M0 0 C2.75 0.0625 2.75 0.0625 6 1 C7.76511299 3.22511214 8.77297776 5.40437603 10 8 C6.05205855 6.32971708 3.18203882 3.8204435 0 1 C0 0.67 0 0.34 0 0 Z " fill="#EAA26E" transform="translate(109,415)"/>
<path d="M0 0 C1.0326802 2.78823655 1.04509293 3.8677274 0.0625 6.75 C-0.288125 7.4925 -0.63875 8.235 -1 9 C-1.33 9 -1.66 9 -2 9 C-2.33 11.31 -2.66 13.62 -3 16 C-3.33 16 -3.66 16 -4 16 C-4.34963286 10.17278563 -4.19639756 6.11423609 -1 1 C-0.67 0.67 -0.34 0.34 0 0 Z " fill="#E0D0B9" transform="translate(240,402)"/>
<path d="M0 0 C0.66 0.33 1.32 0.66 2 1 C1.50628906 1.39832031 1.01257813 1.79664063 0.50390625 2.20703125 C-0.13675781 2.73683594 -0.77742187 3.26664062 -1.4375 3.8125 C-2.07558594 4.33457031 -2.71367187 4.85664063 -3.37109375 5.39453125 C-5.2548275 7.00834411 -5.2548275 7.00834411 -6 10 C-7.65 10 -9.3 10 -11 10 C-7.50640535 6.40365256 -3.88901869 3.16548033 0 0 Z " fill="#EAB185" transform="translate(218,349)"/>
<path d="M0 0 C0.66 0.33 1.32 0.66 2 1 C1.54625 1.4125 1.0925 1.825 0.625 2.25 C-1.05950374 4.06408095 -1.99265971 5.75285627 -3 8 C-4.65 8 -6.3 8 -8 8 C-8 7.34 -8 6.68 -8 6 C-6.25 4.4921875 -6.25 4.4921875 -4 2.875 C-3.2575 2.33617187 -2.515 1.79734375 -1.75 1.2421875 C-1.1725 0.83226562 -0.595 0.42234375 0 0 Z " fill="#DACBAA" transform="translate(120,242)"/>
<path d="M0 0 C1.32 0.33 2.64 0.66 4 1 C2.71283353 2.00578589 1.42011342 3.00446798 0.125 4 C-0.95394531 4.8353125 -0.95394531 4.8353125 -2.0546875 5.6875 C-4 7 -4 7 -6 7 C-6 6.34 -6 5.68 -6 5 C-5.34 5 -4.68 5 -4 5 C-4 4.34 -4 3.68 -4 3 C-2.68 2.67 -1.36 2.34 0 2 C0 1.34 0 0.68 0 0 Z " fill="#D2C4A1" transform="translate(336,417)"/>
<path d="M0 0 C0.99 0.33 1.98 0.66 3 1 C3 1.99 3 2.98 3 4 C3.598125 4.28875 4.19625 4.5775 4.8125 4.875 C7 6 7 6 10 8 C9.34 8 8.68 8 8 8 C7.67 8.66 7.34 9.32 7 10 C5.82739389 8.71372289 4.6620717 7.42080217 3.5 6.125 C2.8503125 5.40570313 2.200625 4.68640625 1.53125 3.9453125 C0 2 0 2 0 0 Z " fill="#E5A478" transform="translate(101,405)"/>
<path d="M0 0 C0.66 0 1.32 0 2 0 C1.67 1.65 1.34 3.3 1 5 C0.34 5 -0.32 5 -1 5 C-1 5.66 -1 6.32 -1 7 C-1.99 7.33 -2.98 7.66 -4 8 C-4 6.02 -4 4.04 -4 2 C-2.68 2 -1.36 2 0 2 C0 1.34 0 0.68 0 0 Z " fill="#7EC390" transform="translate(371,296)"/>
<path d="M0 0 C3.1875 -0.3125 3.1875 -0.3125 6 0 C3.75 2.5 3.75 2.5 1 5 C-0.32 5 -1.64 5 -3 5 C-1.875 2.5 -1.875 2.5 0 0 Z " fill="#D0C19F" transform="translate(163,252)"/>
<path d="M0 0 C3.63 0 7.26 0 11 0 C10.67 0.99 10.34 1.98 10 3 C8.5199159 2.88637738 7.04089926 2.75877092 5.5625 2.625 C4.73878906 2.55539062 3.91507813 2.48578125 3.06640625 2.4140625 C2.38449219 2.27742188 1.70257813 2.14078125 1 2 C0.67 1.34 0.34 0.68 0 0 Z " fill="#EA9D6A" transform="translate(133,429)"/>
<path d="M0 0 C-5.75 5 -5.75 5 -8 5 C-8 3.35 -8 1.7 -8 0 C-4.94736336 -0.98120464 -3.05263664 -0.98120464 0 0 Z " fill="#E7A367" transform="translate(202,411)"/>
<path d="M0 0 C0.99 0.33 1.98 0.66 3 1 C3 1.66 3 2.32 3 3 C3.78375 3.268125 4.5675 3.53625 5.375 3.8125 C8 5 8 5 10 8 C7 8 7 8 4 6 C4 5.34 4 4.68 4 4 C3.01 4 2.02 4 1 4 C0.67 2.68 0.34 1.36 0 0 Z " fill="#D2BFA9" transform="translate(299,292)"/>
<path d="M0 0 C3.45925163 1.2491742 6.14693203 2.67527795 9 5 C8.67 5.66 8.34 6.32 8 7 C6.68 6.67 5.36 6.34 4 6 C4 5.34 4 4.68 4 4 C3.01 3.67 2.02 3.34 1 3 C0.67 2.01 0.34 1.02 0 0 Z " fill="#E9AB7E" transform="translate(185,278)"/>
<path d="M0 0 C3.37462715 0.54723683 5.08235 1.0549 8 3 C8.6875 5.125 8.6875 5.125 9 7 C5.18315774 5.44499019 2.80804268 2.96404505 0 0 Z " fill="#D5C7A6" transform="translate(212,271)"/>
<path d="M0 0 C3.71888239 0.50712033 6.73454239 1.11608215 10 3 C8.02 3.99 8.02 3.99 6 5 C6 4.34 6 3.68 6 3 C4.35 3 2.7 3 1 3 C0.67 2.01 0.34 1.02 0 0 Z " fill="#D2C2A0" transform="translate(188,210)"/>
<path d="M0 0 C0.66 0.33 1.32 0.66 2 1 C0.63016497 4.16115776 0.0109362 4.9927092 -3 7 C-5.1875 6.625 -5.1875 6.625 -7 6 C-6.01 5.67 -5.02 5.34 -4 5 C-4 4.34 -4 3.68 -4 3 C-2 1.375 -2 1.375 0 0 Z " fill="#E8AD7F" transform="translate(195,367)"/>
<path d="M0 0 C1.65 0 3.3 0 5 0 C2.42215154 2.64752004 0.08351902 4.94432065 -3 7 C-3 6.01 -3 5.02 -3 4 C-2.34 4 -1.68 4 -1 4 C-0.67 2.68 -0.34 1.36 0 0 Z " fill="#E8A771" transform="translate(156,333)"/>
<path d="M0 0 C2.16874252 0.50603992 3.99967627 0.99983813 6 2 C5.67 3.32 5.34 4.64 5 6 C2.5 4.6875 2.5 4.6875 0 3 C0 2.01 0 1.02 0 0 Z " fill="#D1BA98" transform="translate(289,329)"/>
<path d="M0 0 C4.455 2.97 4.455 2.97 9 6 C5 7 5 7 2.8125 6.375 C1 5 1 5 0 0 Z " fill="#D1C29D" transform="translate(280,277)"/>
<path d="M0 0 C1.60875 0.928125 1.60875 0.928125 3.25 1.875 C5.79780984 3.3323679 8.35259355 4.72924491 11 6 C8.69 6.33 6.38 6.66 4 7 C2.45428722 4.68143083 1.20381448 2.49361571 0 0 Z " fill="#EBB182" transform="translate(136,389)"/>
<path d="M0 0 C1.8258428 1.8258428 2.82300078 3.2754995 4.0625 5.5 C4.40410156 6.1084375 4.74570313 6.716875 5.09765625 7.34375 C5.7549272 8.5501694 6.38559738 9.77119477 7 11 C5.1875 10.875 5.1875 10.875 3 10 C0.71094011 6.32115375 0 4.38448044 0 0 Z " fill="#E8B185" transform="translate(128,377)"/>
<path d="M0 0 C1.32 0.33 2.64 0.66 4 1 C-0.75 5 -0.75 5 -3 5 C-3 5.66 -3 6.32 -3 7 C-3.66 7 -4.32 7 -5 7 C-5 6.01 -5 5.02 -5 4 C-3.35 3.34 -1.7 2.68 0 2 C0 1.34 0 0.68 0 0 Z " fill="#D1C5AA" transform="translate(133,277)"/>
<path d="M0 0 C3.02419525 0.58803797 6.01758453 1.22678118 9 2 C9 2.99 9 3.98 9 5 C5.22454612 3.90931332 2.52956528 3.0916909 0 0 Z " fill="#F0D27D" transform="translate(181,186)"/>
<path d="M0 0 C0.99 0.99 1.98 1.98 3 3 C1.62845496 5.95409701 0.01136276 8.44008376 -2 11 C-1.125 3.375 -1.125 3.375 0 0 Z " fill="#F4CD65" transform="translate(162,112)"/>
<path d="M0 0 C0.33 0 0.66 0 1 0 C1.24915939 1.76813112 1.47366632 3.53974982 1.6875 5.3125 C1.81511719 6.29863281 1.94273437 7.28476562 2.07421875 8.30078125 C2 11 2 11 0.51953125 12.85546875 C0.01808594 13.23316406 -0.48335938 13.61085938 -1 14 C-2.4552777 11.0894446 -1.63516661 9.04150948 -1.0625 5.875 C-0.77052734 4.23144531 -0.77052734 4.23144531 -0.47265625 2.5546875 C-0.31667969 1.71164062 -0.16070312 0.86859375 0 0 Z " fill="#C6AF80" transform="translate(325,368)"/>
<path d="M0 0 C-4.75 4.875 -4.75 4.875 -7 6 C-7 4.35 -7 2.7 -7 1 C-4.53721199 -0.231394 -2.7204945 -0.07159196 0 0 Z " fill="#EBAA73" transform="translate(256,368)"/>
<path d="M0 0 C0.66 0.66 1.32 1.32 2 2 C0.02 2.99 0.02 2.99 -2 4 C-2 4.66 -2 5.32 -2 6 C-2.99 6.33 -3.98 6.66 -5 7 C-4.75 4.625 -4.75 4.625 -4 2 C-1.9375 0.6875 -1.9375 0.6875 0 0 Z " fill="#E4A16E" transform="translate(261,361)"/>
<path d="M0 0 C0 1.98 0 3.96 0 6 C-1.32 6.33 -2.64 6.66 -4 7 C-4.1875 4.625 -4.1875 4.625 -4 2 C-1 0 -1 0 0 0 Z " fill="#FC8524" transform="translate(108,342)"/>
<path d="M0 0 C1.65 1.65 3.3 3.3 5 5 C4.67 5.66 4.34 6.32 4 7 C2.02 6.34 0.04 5.68 -2 5 C-1.34 3.35 -0.68 1.7 0 0 Z " fill="#E4A667" transform="translate(260,335)"/>
<path d="M0 0 C0.66 0.33 1.32 0.66 2 1 C0.93106782 2.03590338 -0.15578488 3.05333942 -1.25 4.0625 C-2.15492188 4.91521484 -2.15492188 4.91521484 -3.078125 5.78515625 C-5 7 -5 7 -7.234375 6.68359375 C-7.81703125 6.45800781 -8.3996875 6.23242188 -9 6 C-8.2575 5.566875 -7.515 5.13375 -6.75 4.6875 C-4.38166074 3.23420091 -2.19075935 1.70392394 0 0 Z " fill="#EE873F" transform="translate(161,288)"/>
<path d="M0 0 C-3.32307692 4.8 -3.32307692 4.8 -6.75 5.8125 C-7.4925 5.874375 -8.235 5.93625 -9 6 C-4.625 -2.3125 -4.625 -2.3125 0 0 Z " fill="#CAB48A" transform="translate(128,240)"/>
<path d="M0 0 C0 0.33 0 0.66 0 1 C-4.53701494 2.45184478 -8.18061476 3.23509196 -13 3 C-9.21656826 -0.94792877 -5.07874402 -0.29300446 0 0 Z " fill="#B3DBB9" transform="translate(285,208)"/>
<path d="M0 0 C2.86724686 0.57344937 3.8614515 0.8614515 6 3 C6 3.99 6 4.98 6 6 C4.02 5.34 2.04 4.68 0 4 C0 2.66666667 0 1.33333333 0 0 Z " fill="#D7C4A1" transform="translate(244,426)"/>
<path d="M0 0 C1.15957207 3.47871621 0.77456651 4.34219645 -0.4375 7.6875 C-0.86869141 8.89986328 -0.86869141 8.89986328 -1.30859375 10.13671875 C-1.53675781 10.75160156 -1.76492188 11.36648438 -2 12 C-3.1171875 10.265625 -3.1171875 10.265625 -4 8 C-3.3203125 5.859375 -3.3203125 5.859375 -2.125 3.75 C-1.73570312 3.04359375 -1.34640625 2.3371875 -0.9453125 1.609375 C-0.63335937 1.07828125 -0.32140625 0.5471875 0 0 Z " fill="#DACAB0" transform="translate(359,384)"/>
<path d="M0 0 C0.99 0.33 1.98 0.66 3 1 C2.34 1 1.68 1 1 1 C1 1.66 1 2.32 1 3 C-0.98 3.99 -2.96 4.98 -5 6 C-5.33 4.35 -5.66 2.7 -6 1 C-3.03 1.495 -3.03 1.495 0 2 C0 1.34 0 0.68 0 0 Z " fill="#E8A472" transform="translate(230,386)"/>
<path d="M0 0 C0.66 0.33 1.32 0.66 2 1 C0.8125 3.5 0.8125 3.5 -1 6 C-3.6875 6.3125 -3.6875 6.3125 -6 6 C-4 4 -2 2 0 0 Z " fill="#E9A575" transform="translate(139,302)"/>
<path d="M0 0 C2.64 1.98 5.28 3.96 8 6 C7.34 6.66 6.68 7.32 6 8 C6 7.34 6 6.68 6 6 C5.071875 5.9071875 5.071875 5.9071875 4.125 5.8125 C2 5 2 5 0.75 2.4375 C0.5025 1.633125 0.255 0.82875 0 0 Z " fill="#D6CAAD" transform="translate(265,265)"/>
<path d="M0 0 C0 0.99 0 1.98 0 3 C-0.639375 3.12375 -1.27875 3.2475 -1.9375 3.375 C-2.618125 3.58125 -3.29875 3.7875 -4 4 C-4.33 4.66 -4.66 5.32 -5 6 C-7.5625 6.625 -7.5625 6.625 -10 7 C-3.18421053 0 -3.18421053 0 0 0 Z " fill="#DDCCB3" transform="translate(112,250)"/>
<path d="M0 0 C2.0625 0.4375 2.0625 0.4375 4 1 C3.979375 1.78375 3.95875 2.5675 3.9375 3.375 C3.81315937 5.98114961 3.81315937 5.98114961 5 8 C2 7 2 7 0.3125 3.9375 C-0.120625 2.968125 -0.55375 1.99875 -1 1 C-0.67 0.67 -0.34 0.34 0 0 Z " fill="#F5CE65" transform="translate(170,169)"/>
<path d="M0 0 C0.99 0.33 1.98 0.66 3 1 C4.62323754 4.75907641 5.23994929 7.92086213 5 12 C3.20931427 9.3139714 2.33944209 7.3373411 1.375 4.3125 C1.11460937 3.50425781 0.85421875 2.69601563 0.5859375 1.86328125 C0.39257812 1.24839844 0.19921875 0.63351563 0 0 Z " fill="#F2DCA2" transform="translate(254,116)"/>
<path d="M0 0 C0.33 0 0.66 0 1 0 C1.1875 3.375 1.1875 3.375 1 7 C0.01 7.66 -0.98 8.32 -2 9 C-2.25 3.375 -2.25 3.375 0 0 Z " fill="#EFD781" transform="translate(168,96)"/>
<path d="M0 0 C0.66 0 1.32 0 2 0 C2.33 1.65 2.66 3.3 3 5 C1.68 5.99 0.36 6.98 -1 8 C-0.67 5.36 -0.34 2.72 0 0 Z " fill="#C9B588" transform="translate(346,404)"/>
<path d="M0 0 C1 2 1 2 0.3125 4.5 C-1.15567038 7.29651501 -2.09303901 7.93411431 -5 9 C-3.7508258 5.54074837 -2.32472205 2.85306797 0 0 Z " fill="#EBBA87" transform="translate(102,334)"/>
<path d="M0 0 C3.36591866 1.44253657 5.51047079 3.33264727 8 6 C5.03 5.01 2.06 4.02 -1 3 C-0.67 2.01 -0.34 1.02 0 0 Z " fill="#D5C8AD" transform="translate(254,257)"/>
<path d="M0 0 C-2.62198774 2.15377564 -4.64404172 3.40072174 -8 4 C-8 3.34 -8 2.68 -8 2 C-7.34 2 -6.68 2 -6 2 C-6 1.34 -6 0.68 -6 0 C-3 -1 -3 -1 0 0 Z " fill="#CEBD99" transform="translate(330,424)"/>
<path d="M0 0 C0.66 0 1.32 0 2 0 C3.80230168 3.82989106 4.19622241 6.78121808 4 11 C1.54176828 7.31265242 0.98757384 4.30300029 0 0 Z " fill="#E9AF8B" transform="translate(92,386)"/>
<path d="M0 0 C0 0.99 0 1.98 0 3 C-0.639375 3.268125 -1.27875 3.53625 -1.9375 3.8125 C-4.33131686 4.88667752 -4.33131686 4.88667752 -5 8 C-4.75 5.125 -4.75 5.125 -4 2 C-1.9375 0.625 -1.9375 0.625 0 0 Z " fill="#E9883F" transform="translate(107,332)"/>
<path d="M0 0 C2.375 -0.125 2.375 -0.125 5 0 C7 2 7 2 7 5 C4.11562221 3.70700306 2.12780579 2.34058637 0 0 Z " fill="#D6BD9C" transform="translate(277,322)"/>
<path d="M0 0 C1.65 0 3.3 0 5 0 C5 0.66 5 1.32 5 2 C5.66 2.33 6.32 2.66 7 3 C6.34 3.66 5.68 4.32 5 5 C3.35 3.35 1.7 1.7 0 0 Z " fill="#CEBC90" transform="translate(256,305)"/>
<path d="M0 0 C2.97 0.99 5.94 1.98 9 3 C8.01 3.495 8.01 3.495 7 4 C6.67 4.66 6.34 5.32 6 6 C3.97945196 4.35830472 1.97956942 2.69088222 0 1 C0 0.67 0 0.34 0 0 Z " fill="#D6C3A4" transform="translate(221,278)"/>
<path d="M0 0 C-1.13719419 3.41158256 -2.04342944 4.11854601 -5 6 C-5.66 6 -6.32 6 -7 6 C-7 5.01 -7 4.02 -7 3 C-2.77777778 0 -2.77777778 0 0 0 Z " fill="#D1C3AA" transform="translate(159,259)"/>
<path d="M0 0 C1.98 0.99 1.98 0.99 4 2 C4 2.66 4 3.32 4 4 C4.99 4.33 5.98 4.66 7 5 C6.01 5.495 6.01 5.495 5 6 C2.375 5.0625 2.375 5.0625 0 4 C0 2.68 0 1.36 0 0 Z " fill="#93C69B" transform="translate(345,253)"/>
<path d="M0 0 C0.598125 0.20625 1.19625 0.4125 1.8125 0.625 C-0.1675 1.615 -0.1675 1.615 -2.1875 2.625 C-2.1875 3.285 -2.1875 3.945 -2.1875 4.625 C-3.1775 4.295 -4.1675 3.965 -5.1875 3.625 C-5.1875 2.965 -5.1875 2.305 -5.1875 1.625 C-2.1875 -0.375 -2.1875 -0.375 0 0 Z " fill="#D0C199" transform="translate(173.1875,247.375)"/>
<path d="M0 0 C0.66 0 1.32 0 2 0 C1.34 3.96 0.68 7.92 0 12 C-0.33 12 -0.66 12 -1 12 C-1.02687279 10.18757948 -1.04633715 8.37504767 -1.0625 6.5625 C-1.07410156 5.55316406 -1.08570313 4.54382813 -1.09765625 3.50390625 C-1 1 -1 1 0 0 Z " fill="#6DBD7D" transform="translate(265,219)"/>
<path d="M0 0 C2 1.75 2 1.75 4 4 C4 5.32 4 6.64 4 8 C3.34 8 2.68 8 2 8 C0.23537317 4.91190305 0 3.76687864 0 0 Z " fill="#F0D687" transform="translate(287,105)"/>
<path d="M0 0 C0 0.66 0 1.32 0 2 C-0.99 2 -1.98 2 -3 2 C-3.33 3.65 -3.66 5.3 -4 7 C-4.33 6.34 -4.66 5.68 -5 5 C-5.66 4.67 -6.32 4.34 -7 4 C-2.25 0 -2.25 0 0 0 Z " fill="#D6C5A2" transform="translate(248,397)"/>
<path d="M0 0 C1.32 0.33 2.64 0.66 4 1 C2.68 2.32 1.36 3.64 0 5 C-0.99 4.67 -1.98 4.34 -3 4 C-2.34 4 -1.68 4 -1 4 C-0.67 2.68 -0.34 1.36 0 0 Z " fill="#E5A26E" transform="translate(221,391)"/>
<path d="M0 0 C1 4 1 4 1 8 C0.01 8 -0.98 8 -2 8 C-2 8.66 -2 9.32 -2 10 C-2.66 9.67 -3.32 9.34 -4 9 C-2.68 6.03 -1.36 3.06 0 0 Z " fill="#D8C9AF" transform="translate(323,376)"/>
<path d="M0 0 C1.98 1.65 3.96 3.3 6 5 C5.01 5.33 4.02 5.66 3 6 C2.01 5.34 1.02 4.68 0 4 C0 2.68 0 1.36 0 0 Z " fill="#CFBFA0" transform="translate(341,325)"/>
<path d="M0 0 C2.97 0.495 2.97 0.495 6 1 C4.625 3 4.625 3 3 5 C2.34 5 1.68 5 1 5 C0.67 3.35 0.34 1.7 0 0 Z " fill="#EDA36F" transform="translate(187,307)"/>
<path d="M0 0 C1.33597652 0.80814651 2.668725 1.62163181 4 2.4375 C5.11375 3.11619141 5.11375 3.11619141 6.25 3.80859375 C6.8275 4.20175781 7.405 4.59492188 8 5 C8 5.33 8 5.66 8 6 C5.6875 6.25 5.6875 6.25 3 6 C1.02389614 3.95575462 0 2.8823175 0 0 Z " fill="#58C36E" transform="translate(352,263)"/>
<path d="M0 0 C3.0916909 2.52956528 3.90931332 5.22454612 5 9 C2 8 2 8 0.8125 6.1875 C0 4 0 4 0 0 Z " fill="#F1DFA2" transform="translate(284,97)"/>
<path d="M0 0 C1 2 1 2 0.875 4 C0 6 0 6 -2.5625 7.25 C-3.366875 7.4975 -4.17125 7.745 -5 8 C-3.62845496 5.04590299 -2.01136276 2.55991624 0 0 Z " fill="#F1DE9C" transform="translate(174,88)"/>
<path d="M0 0 C1.98 1.65 3.96 3.3 6 5 C5.01 5.33 4.02 5.66 3 6 C2.01 5.34 1.02 4.68 0 4 C0 2.68 0 1.36 0 0 Z " fill="#F2D78F" transform="translate(272,83)"/>
</svg>
